<?xml version="1.0" encoding="utf-8"?>
<!-- Generator: Adobe Illustrator 24.0.1, SVG Export Plug-In . SVG Version: 6.00 Build 0)  -->
<svg version="1.1" id="圖層_1" xmlns="http://www.w3.org/2000/svg" xmlns:xlink="http://www.w3.org/1999/xlink" x="0px" y="0px"
	 viewBox="0 0 212.3 126.3" style="enable-background:new 0 0 212.3 126.3;" xml:space="preserve">
<style type="text/css">
	.st0{fill:#FFFFFF;}
	.st1{fill:#9FCCE2;}
	.st2{fill:#4EA2D1;}
	.st3{fill:#959798;}
</style>
<g>
	<path class="st0" d="M188.8,29.8c6.3-6.9,12.7-12.9,18.9-17.2c1.2-0.9,1.6-2.5,0.9-3.8c-0.5-1-1.6-1.6-2.7-1.6
		c-0.3,0-0.6,0.1-1,0.2c-0.7,0.2-10,3.5-24.9,12.7l0.3-5.2c0-0.1,0-0.1,0-0.2c0-0.9-0.3-2.9-3.5-3.1c-0.4,0-1.1-0.1-1.8-0.1
		c-1.5-0.1-3.4-0.1-5.4-0.2c-3.9-0.1-8.1-0.2-8.9-0.2c-6.6,0-12.4,0.2-17.9,0.6c-12.5,0.9-24.8,3.4-36.6,7.5
		c-6.5,2.4-12.8,5.4-18.7,9.1c-3,1.9-6,3.8-8.7,5.9c-1.3,1-2.7,2.1-4,3.1c-0.1,0.1-0.3,0.2-0.4,0.3c-0.4,0.3-0.9,0.6-1.3,1
		c-0.2,0.2-0.3,0.3-0.5,0.5c-0.2,0.3-0.4,0.5-0.6,0.7c-0.1,0.1-0.1,0.2-0.2,0.2c-0.5,0.2-0.9,0.3-1.4,0.4h-0.1
		c-2.4,0.5-4.9,0.6-7.5,0.8c-1.8,0.1-3.7,0.3-5.6,0.5C51.1,42.4,45,43.5,39,45.1c-2,0.6-3.9,1.3-5.7,1.9c-0.7,0.3-1.4,0.5-2.1,0.8
		c-3.3,1.2-19.8,8.7-25.8,41l-0.1,0.4c0,0.2,0,0.4,0,0.5v0.4c0,0.1,0,0.2,0,0.3c0.5,4.6,3.8,13,13.8,13.8c0.1,0,0.2,0,0.2,0h13.3
		c3.1,9,9.8,14.7,19.1,16.2c1.7,0.3,3.5,0.4,5.2,0.4c7.6,0,17.9-2.9,24.9-16.6h32.9c1.7,0,3-1.3,3-3v-6c0-1.7-1.3-3-3-3H86.2l0,0
		c0-0.1,0-0.2,0.1-0.3c0.6-3.3-1.6-6.4-4.9-6.9c-0.3-0.1-0.7-0.1-1-0.1c-2.5,0-4.8,1.6-5.6,4c0,0.1-0.1,0.2-0.1,0.3
		c-3.6,13.2-9.5,19.6-18,19.6c-1,0-2.1-0.1-3.2-0.3c-11.5-1.8-10.8-15-10.7-17.1c0.6-3.2-1.5-6.2-4.6-6.9c-0.4-0.1-0.9-0.1-1.3-0.1
		c-2.8,0-5.3,2-5.9,4.7c-0.1,0.4-0.1,0.7-0.1,1.1c-0.1,0.7-0.1,1.4-0.1,2.1h-11c-1.1-0.1-2-0.9-2.3-2c0.7-3.6,1.6-7.2,2.8-10.7
		l0.2-0.5c0.5-1.4,0.7-1.9,1.4-2.4c0,0,0.1,0,0.1-0.1c1.5-1.2,3.3-1.9,5.3-2.1c1.4,0,2.7,0,4.1-0.1l9.8-0.6L66,72.2l7.7-0.5
		c0.8-0.1,1.5-0.4,2.1-1s0.8-1.4,0.7-2.2l-0.2-2.6c-0.1-1.6-1.4-2.8-3-2.8c-0.1,0-0.1,0-0.2,0L56,64.2c-2.9,0.2-5.8,0.4-8.7,0.5
		c-5.3,0.3-10.7,0.7-16.1,1c-0.9,0.1-1.9,0.1-2.9,0.1c-0.3,0-0.5,0-0.8,0c4-5.1,7.6-6.7,7.9-6.8h0.1l0.3-0.1h0.1
		c8.9-4,19.3-5,29.4-5.9l1.8-0.2c2.5-0.1,4.9-0.5,7.3-1.1c0,0,0,0,0.1,0c1.7-0.4,3.3-1.2,4.8-2.2c1.1-0.8,1.8-1.6,2.4-2.3
		c0.3-0.4,0.7-0.8,1-1c0.8-0.7,1.7-1.4,2.6-2.1c0.3-0.2,0.5-0.4,0.8-0.6c2.5-1.9,5.1-3.7,7.7-5.3c5.2-3.1,10.7-5.8,16.5-7.8
		c11.4-3.9,23.3-6.3,35.3-6.9c5.2-0.3,10.5-0.5,15.6-0.5c4.5,0,9,0.1,13.4,0.4c-11.3,7.5-25.1,18.1-40.4,32.9
		c-4.2-4.9-13.6-15.5-19.7-19c-0.5-0.3-1-0.4-1.5-0.4s-1,0.1-1.4,0.4l-23,12.5c-1,0.5-1.6,1.6-1.6,2.7c0,1.1,0.6,2.1,1.6,2.6
		c0.2,0.1,14.6,7.8,30.5,31.3l0,0c0.5,0.8,1,1.5,1.5,2.3c0.1,0.2,0.3,0.4,0.4,0.6c0.5,0.8,1.1,1.7,1.6,2.6c0.1,0.1,0.1,0.2,0.2,0.3
		c2.5,4,4.9,8.3,7.4,13.1c0,0.1,0.1,0.1,0.1,0.2s0.1,0.1,0.1,0.2s0.1,0.1,0.1,0.2l0.1,0.1c0.1,0.1,0.1,0.1,0.2,0.2l0.1,0.1
		c0.1,0,0.1,0.1,0.2,0.1l0.1,0.1c0.1,0,0.1,0.1,0.2,0.1c0.1,0,0.1,0.1,0.2,0.1c0.1,0,0.1,0,0.2,0.1c0.1,0,0.1,0,0.2,0.1
		c0.1,0,0.1,0,0.2,0.1c0.1,0,0.1,0,0.2,0c0.1,0,0.2,0,0.2,0c0.1,0,0.1,0,0.2,0l0,0l0,0c0,0,0,0,0.1,0c0.3,0,0.5,0,0.8-0.1h0.1
		c0.2-0.1,0.4-0.1,0.6-0.3c0.1,0,0.1-0.1,0.2-0.2c0.1-0.1,0.3-0.2,0.4-0.3c0.1-0.1,0.1-0.2,0.2-0.2c0.1-0.1,0.2-0.3,0.3-0.4
		c0.3-0.5,25.9-45.9,53-75.4C188.7,30,188.7,29.9,188.8,29.8z M80.3,87.9c0.2,0,0.3,0,0.5,0C80.6,87.9,80.5,87.9,80.3,87.9
		L80.3,87.9z M53,111.5L53,111.5L53,111.5c-0.7-0.1-1.4-0.3-2-0.4C51.7,111.2,52.3,111.4,53,111.5z M36.9,87.4
		C37,87.4,37,87.4,36.9,87.4c-0.2,0-0.3,0-0.5,0C36.6,87.4,36.8,87.4,36.9,87.4z M19.7,95.2h14.2l0,0H19.7c-0.3,0-0.7-0.1-1-0.2
		C19,95.2,19.3,95.2,19.7,95.2z M19.3,101.2L19.3,101.2c-0.6,0-1.1-0.1-1.6-0.2C18.2,101.1,18.7,101.2,19.3,101.2z M17.5,78.6
		c-0.7,1.9-1.2,3.8-1.8,5.7C16.3,82.4,16.8,80.5,17.5,78.6c0.1-0.3,0.2-0.7,0.3-1C17.7,78,17.6,78.3,17.5,78.6z M75.2,40.9
		c-0.1,0.1-0.2,0.2-0.3,0.3c-0.6,0.6-0.8,1.2-1.6,1.7c-0.8,0.4-1.6,0.6-2.5,0.8c0.9-0.1,1.7-0.4,2.5-0.8c0.8-0.4,1-1,1.6-1.7
		C75.1,41.1,75.1,41,75.2,40.9c0.2-0.2,0.5-0.4,0.7-0.6C75.7,40.5,75.5,40.7,75.2,40.9z M95.8,27.2c2.2-1.2,4.5-2.2,6.8-3.2
		C100.3,25,98,26,95.8,27.2z M160.8,14.1c-1.5,0-2.9,0-4.4,0C157.8,14.1,159.3,14.1,160.8,14.1c0.2,0,0.7,0,1.3,0
		C161.4,14.1,161,14.1,160.8,14.1z M162.8,14.2c0.9,0,1.9,0,3.1,0.1C164.7,14.2,163.7,14.2,162.8,14.2z"/>
	<path class="st0" d="M205.9,7.1c1.1,0,2.2,0.6,2.7,1.6c0.7,1.3,0.3,2.9-0.9,3.8c-6.2,4.4-12.6,10.4-18.9,17.2
		c-0.1,0.1-0.1,0.1-0.2,0.2c-27,29.5-52.7,75-53,75.4c-0.1,0.1-0.2,0.3-0.3,0.4s-0.1,0.2-0.2,0.2c-0.1,0.1-0.3,0.2-0.4,0.3
		c-0.1,0.1-0.1,0.1-0.2,0.2c-0.2,0.1-0.4,0.2-0.6,0.3h-0.1c-0.3,0.1-0.5,0.1-0.8,0.1c0,0,0,0-0.1,0l0,0l0,0c-0.1,0-0.1,0-0.2,0
		c-0.1,0-0.2,0-0.2,0c-0.1,0-0.1,0-0.2,0c-0.1,0-0.1,0-0.2-0.1c-0.1,0-0.1,0-0.2-0.1c-0.1,0-0.1,0-0.2-0.1c-0.1,0-0.1-0.1-0.2-0.1
		c-0.1,0-0.1-0.1-0.2-0.1c-0.1,0-0.1-0.1-0.1-0.1c-0.1,0-0.1-0.1-0.2-0.1l-0.1-0.1c-0.1-0.1-0.1-0.1-0.2-0.2l-0.1-0.1
		c0-0.1-0.1-0.1-0.1-0.2s-0.1-0.1-0.1-0.2s-0.1-0.1-0.1-0.2c-2.4-4.8-4.9-9.1-7.4-13.1c-0.1-0.1-0.1-0.2-0.2-0.3
		c-0.5-0.9-1.1-1.7-1.6-2.6c-0.1-0.2-0.3-0.4-0.4-0.6c-0.5-0.8-1-1.6-1.5-2.3l0,0c-15.8-23.2-30.3-31-30.5-31
		c-1-0.5-1.6-1.5-1.6-2.6s0.6-2.1,1.6-2.7l23-12.5c0.4-0.2,0.9-0.4,1.4-0.4s1,0.1,1.5,0.4c6.1,3.5,15.5,14.1,19.7,19
		c15.3-14.8,29.1-25.4,40.4-32.9c-4.5-0.2-9-0.4-13.4-0.4c-5.2,0-10.4,0.2-15.6,0.5c-12.1,0.7-23.9,3-35.3,6.9
		c-5.7,2-11.3,4.7-16.5,7.8c-2.7,1.6-5.3,3.4-7.7,5.3c-0.2,0.2-0.5,0.4-0.8,0.6c-0.9,0.7-1.8,1.4-2.6,2.1c-0.3,0.3-0.6,0.7-1,1
		c-0.6,0.7-1.4,1.6-2.4,2.3c-1.5,1-3.1,1.7-4.8,2.2c0,0,0,0-0.1,0c-2.4,0.6-4.9,0.9-7.3,1.1l-1.8,0.2C55.3,54,44.9,55,36,59h-0.1
		l-0.3,0.1h-0.1c-0.2,0.1-3.8,1.6-7.9,6.8c0.3,0,0.5,0,0.8,0c1,0,1.9,0,2.9-0.1c5.4-0.4,10.8-0.7,16.1-1c2.9-0.2,5.8-0.4,8.7-0.5
		l17.1-1.1c0.1,0,0.1,0,0.2,0c1.6,0,2.9,1.2,3,2.8l0.2,2.6c0.1,0.8-0.2,1.6-0.7,2.2s-1.3,1-2.1,1l-7.7,0.5l-24.8,1.6l-9.8,0.6
		c-1.4,0.1-2.7,0.1-4.1,0.1c-1.9,0.1-3.8,0.8-5.3,2.1c0,0-0.1,0-0.1,0.1c-0.6,0.5-0.9,1-1.4,2.4l-0.2,0.5c-1.2,3.5-2.2,7-2.8,10.7
		c0.3,1.1,1.2,1.9,2.3,2h11c0-0.7,0.1-1.4,0.1-2.1c0-0.4,0.1-0.7,0.1-1.1c0.6-2.7,3.1-4.7,5.9-4.7c0.4,0,0.9,0,1.3,0.1
		c3.2,0.7,5.2,3.8,4.6,6.9c-0.2,2.1-0.8,15.3,10.7,17.1c1.1,0.2,2.1,0.3,3.2,0.3c8.6,0,14.4-6.4,17.9-19.7c0-0.1,0-0.2,0.1-0.3
		c0.9-2.4,3.1-4,5.6-4c0.3,0,0.7,0,1,0.1c3.3,0.6,5.5,3.7,4.9,6.9c0,0.1,0,0.2-0.1,0.3l0,0h28.4c1.7,0,3,1.3,3,3v6c0,1.7-1.3,3-3,3
		H81.7c-7,13.6-17.3,16.6-24.9,16.6c-1.7,0-3.5-0.1-5.2-0.4c-9.3-1.5-16-7.2-19.1-16.2H19.3c-0.1,0-0.2,0-0.2,0
		C9.1,103.4,5.8,95,5.4,90.6c0-0.1,0-0.2,0-0.3v-0.4c0-0.2,0-0.4,0-0.5L5.5,89c6-32.3,22.5-39.8,25.8-41c0.7-0.3,1.4-0.5,2.1-0.8
		c1.8-0.7,3.7-1.4,5.7-1.9c6-1.6,12.1-2.7,18.2-3.4c1.9-0.2,3.8-0.4,5.6-0.5c2.6-0.2,5.1-0.3,7.5-0.8h0.1c0.5-0.1,1-0.2,1.4-0.4
		c0-0.1,0.1-0.2,0.2-0.2c0.2-0.2,0.3-0.5,0.6-0.7c0.2-0.2,0.3-0.4,0.5-0.5c0.4-0.4,0.9-0.7,1.3-1c0.1-0.1,0.3-0.2,0.4-0.3
		c1.3-1.1,2.7-2.1,4-3.1c2.7-2.1,5.7-4.1,8.7-5.9c5.9-3.6,12.2-6.7,18.7-9.1c11.8-4.1,24.1-6.7,36.6-7.5c5.5-0.4,11.3-0.6,17.9-0.6
		c0.7,0,5,0.1,8.9,0.2c2,0.1,4,0.1,5.4,0.2c0.8,0,1.4,0.1,1.8,0.1c3.1,0.2,3.5,2.2,3.5,3.1c0,0.1,0,0.1,0,0.2l-0.3,5.2
		c14.8-9.5,24.2-12.8,24.9-13C205.3,7.2,205.6,7.1,205.9,7.1 M156.4,14.2c1.5,0,2.9,0,4.4,0c0.2,0,0.7,0,1.3,0l0,0l0,0
		c-0.7,0-1.1,0-1.3,0C159.3,14.1,157.8,14.1,156.4,14.2 M162.9,14.2c0.9,0,1.9,0,3,0.1C164.8,14.2,163.7,14.2,162.9,14.2
		C162.8,14.2,162.8,14.2,162.9,14.2C162.8,14.2,162.8,14.2,162.9,14.2 M95.8,27.2c2.2-1.2,4.5-2.2,6.8-3.2C100.3,25,98,26,95.8,27.2
		 M71,43.6c0.9-0.1,1.7-0.4,2.5-0.8c0.8-0.4,1-1,1.6-1.7c0.1-0.1,0.2-0.2,0.3-0.3c0.2-0.2,0.5-0.4,0.7-0.6c-0.3,0.2-0.5,0.4-0.7,0.6
		c-0.1,0.1-0.2,0.2-0.3,0.3c-0.6,0.6-0.8,1.2-1.6,1.7C72.6,43.2,71.8,43.4,71,43.6 M15.7,84.4c0.5-1.9,1.1-3.9,1.8-5.7
		c0.1-0.3,0.2-0.7,0.3-1c-0.1,0.3-0.2,0.6-0.3,1C16.8,80.5,16.3,82.4,15.7,84.4 M36.4,87.4c0.2,0,0.3,0,0.5,0l0,0l0,0
		C36.8,87.4,36.6,87.4,36.4,87.4 M80.3,87.9L80.3,87.9c0.2,0,0.3,0,0.5,0l0,0l0,0C80.6,87.9,80.5,87.9,80.3,87.9L80.3,87.9
		 M18.7,95.1c0.3,0.1,0.6,0.1,1,0.2h14.2l0,0H19.7C19.3,95.2,19,95.2,18.7,95.1L18.7,95.1L18.7,95.1 M17.7,101
		c0.5,0.1,1,0.2,1.6,0.2l0,0C18.7,101.2,18.2,101.1,17.7,101L17.7,101L17.7,101 M51,111.1c0.6,0.2,1.3,0.3,2,0.4l0,0l0,0l0,0l0,0
		C52.3,111.4,51.7,111.2,51,111.1L51,111.1L51,111.1 M205.9,6.1c-0.4,0-0.9,0.1-1.3,0.2c-0.4,0.1-9.3,3.2-23.5,11.8l0.2-3.3
		c0-0.1,0-0.1,0-0.2c0-1.8-1.2-3.9-4.4-4.1c-0.4,0-1.1-0.1-1.8-0.1c-1.5-0.1-3.4-0.1-5.4-0.2c-3.9-0.1-8.2-0.2-8.9-0.2
		c-6.6,0-12.5,0.2-18,0.7c-12.5,0.9-24.9,3.4-36.8,7.6c-6.6,2.4-13,5.5-18.9,9.2c-3.1,1.9-6,3.9-8.8,6c-1.3,1-2.7,2.1-4,3.1
		c-0.1,0.1-0.2,0.1-0.3,0.2l0,0c-0.4,0.3-0.9,0.6-1.4,1.1c-0.2,0.2-0.4,0.4-0.6,0.6c-0.3,0.3-0.5,0.6-0.6,0.8l0,0
		c-0.3,0.1-0.6,0.2-0.9,0.2h-0.1c-2.4,0.4-4.8,0.6-7.4,0.8c-1.8,0.1-3.7,0.3-5.6,0.5c-6.1,0.7-12.3,1.8-18.3,3.4
		c-2.1,0.6-4,1.3-5.8,2c-0.7,0.3-1.4,0.5-2.1,0.8c-3.4,1.2-20.4,9-26.4,41.8l-0.1,0.4c0,0.2-0.1,0.5-0.1,0.7v0.4c0,0.1,0,0.2,0,0.3
		c0.4,4.7,4,13.7,14.6,14.5c0.1,0,0.2,0,0.3,0h12.6c3.3,8.9,10.2,14.6,19.6,16.1c1.8,0.3,3.6,0.4,5.4,0.4c7.6,0,18.2-2.9,25.5-16.6
		h32.3c2.2,0,4-1.8,4-4v-6c0-2.2-1.8-4-4-4H87.3c0.1-3.5-2.3-6.6-5.8-7.2c-0.4-0.1-0.8-0.1-1.2-0.1c-2.9,0-5.6,1.9-6.6,4.6
		c0,0.1-0.1,0.2-0.1,0.3c-3.3,13-8.9,19.2-16.9,19.2c-1,0-2-0.1-3-0.3c-10.4-1.7-10-13.5-9.8-16c0.6-3.7-1.7-7.2-5.4-8
		c-0.5-0.1-1-0.2-1.5-0.2c-3.3,0-6.1,2.3-6.8,5.5c-0.1,0.4-0.1,0.8-0.2,1.2c0,0.4-0.1,0.8-0.1,1.1H19.8c-0.6-0.1-1.1-0.5-1.3-1
		c0.7-3.5,1.6-6.9,2.8-10.3l0.2-0.5c0.5-1.4,0.6-1.7,1-2l0.1-0.1c1.3-1.1,3-1.7,4.7-1.8c1.3,0,2.7,0,4.1-0.1l9.8-0.6L66,73.1
		l7.7-0.5c1.1-0.1,2-0.5,2.7-1.4c0.7-0.8,1.1-1.8,1-2.9l-0.2-2.6c-0.1-2.1-1.9-3.7-4-3.7c-0.1,0-0.2,0-0.3,0l-17.1,1.1
		c-2.9,0.2-5.8,0.4-8.6,0.5h-0.1c-5.3,0.3-10.7,0.7-16.1,1c-0.5,0-0.9,0.1-1.4,0.1c3.3-3.6,5.9-4.7,6.1-4.8h0.1l0.3-0.1
		c0,0,0.1,0,0.1-0.1c8.7-4,19-4.9,29-5.8l1.8-0.2c2.5-0.1,5-0.5,7.5-1.1h0.1c1.8-0.5,3.6-1.3,5.1-2.3c1.2-0.8,2-1.8,2.6-2.5
		c0.3-0.4,0.6-0.7,0.9-1c0.7-0.7,1.7-1.4,2.5-2c0.3-0.2,0.5-0.4,0.8-0.6c2.4-1.9,5-3.6,7.6-5.2c5.1-3.1,10.6-5.7,16.3-7.7
		c11.3-3.9,23.1-6.2,35-6.9c5.2-0.3,10.4-0.5,15.6-0.5c3.4,0,6.9,0.1,10.4,0.2c-12.5,8.5-25,18.8-37.2,30.6
		c-5-5.8-13.4-15-19.2-18.4c-0.6-0.4-1.3-0.5-2-0.5s-1.3,0.2-1.9,0.5l-23,12.5c-1.3,0.7-2.1,2.1-2.1,3.6s0.8,2.8,2.2,3.5
		c0.1,0.1,14.4,7.8,30.1,31l0.9-0.5l-0.8,0.6c0.5,0.8,1,1.5,1.5,2.3l0.2,0.2l0.2,0.4c0.5,0.8,1.1,1.7,1.6,2.5l0.1,0.1l0.1,0.1
		c2.5,4.1,5,8.5,7.3,13c0,0.1,0.1,0.1,0.1,0.2v0.1c0,0.1,0.1,0.1,0.1,0.2s0.1,0.1,0.1,0.2l0.1,0.1c0,0.1,0.1,0.1,0.1,0.2
		c0.1,0.1,0.1,0.1,0.2,0.2l0.1,0.1l0.1,0.1c0.1,0.1,0.1,0.1,0.2,0.1l0.1,0.1c0.1,0,0.1,0.1,0.2,0.1c0.1,0,0.1,0.1,0.2,0.1h0.1
		c0.1,0,0.1,0.1,0.2,0.1c0.1,0,0.1,0.1,0.2,0.1h0.1c0.1,0,0.1,0.1,0.2,0.1c0.1,0,0.2,0,0.2,0.1l0,0c0.1,0,0.2,0,0.2,0.1
		c0.1,0,0.2,0,0.3,0h0.1c0.1,0,0.2,0,0.2,0h0.1c0.4,0,0.7,0,1.1-0.1c0.1,0,0.1,0,0.2-0.1c0.2-0.1,0.5-0.2,0.8-0.3
		c0.1-0.1,0.2-0.1,0.3-0.2l0.1-0.1c0.1-0.1,0.3-0.2,0.5-0.4c0.1-0.1,0.2-0.2,0.2-0.3l0.1-0.1c0.1-0.1,0.2-0.3,0.3-0.5
		c0.3-0.5,25.9-45.8,52.8-75.2c0.1-0.1,0.1-0.2,0.2-0.2l0,0c6.7-7.3,13-13.1,18.7-17.1c1.6-1.1,2.1-3.3,1.3-5.1
		C208.8,7,207.4,6.1,205.9,6.1L205.9,6.1z"/>
</g>
<path class="st1" d="M205.9,10.1c0,0-31,10.4-71.9,50.6c0,0-13.5-16.5-20.9-20.8l-23,12.5c0,0,22.6,11.7,42.9,51.5
	C133,104,172.4,33.8,205.9,10.1z"/>
<path class="st2" d="M118.1,79.6c5.6,7.7,10.6,15.9,14.9,24.4c0,0,25.8-45.9,53.4-76C160.3,46.2,133.7,67.1,118.1,79.6z"/>
<path class="st3" d="M75.2,40.9c-0.1,0.1-0.2,0.2-0.3,0.3c-0.6,0.6-0.8,1.2-1.6,1.7c-0.8,0.4-1.6,0.6-2.4,0.8
	c-4.4,0.8-8.9,0.8-13.3,1.3c-6,0.7-11.9,1.8-17.8,3.3c-2.6,0.7-5,1.7-7.6,2.6c-2.1,0.8-18.1,7.5-23.8,38.7L8.3,90v0.4
	c0.4,3.4,3,10.2,11,10.8h15.5c1.9,7.2,6.7,14.5,17.3,16.2c1.6,0.3,3.2,0.4,4.7,0.4c8,0,17-3.6,23-16.6h34.7v-6H82.2
	c0.4-1.2,0.8-2.5,1.1-3.8c0.3-1.6-0.8-3.2-2.5-3.5c-1.4-0.2-2.8,0.6-3.3,1.9C73.2,106.1,65,113.3,53,111.4
	C38.1,109.1,39.8,91.7,39.9,91c0.4-1.6-0.7-3.2-2.3-3.6s-3.2,0.7-3.6,2.3c0,0.2-0.1,0.4-0.1,0.6c-0.2,1.6-0.2,3.3-0.1,4.9H19.6
	c-2.7-0.2-4.9-2.3-5.2-5c0.7-3.9,1.7-7.8,3.1-11.6c0.6-1.8,1-3.2,2.6-4.3c2-1.6,4.5-2.6,7-2.7c1.4,0,2.7,0,4-0.1l9.8-0.6l24.8-1.6
	l7.7-0.5l-0.2-2.6l-17.1,1.1c-8.3,0.5-16.5,1-24.8,1.6C29.7,69,28.1,69,26.6,69c-2,0.1-4,0.7-5.7,1.7C27,59.1,34.2,56.4,34.3,56.4
	l0.3-0.1c9.9-4.5,21.5-5.3,32.2-6.3c2.3-0.1,4.6-0.5,6.9-1c1.4-0.4,2.7-1,3.9-1.8c1.3-0.9,2-2.2,3.1-3.1s2.4-1.9,3.6-2.8
	c2.6-2,5.2-3.8,8-5.4c5.4-3.2,11.1-5.9,17-8.1c11.7-4,23.8-6.4,36.2-7.1c10.5-0.7,21.1-0.7,31.6,0l0.3-6c0-0.2-15.2-0.5-16.6-0.5
	c-5.9,0-11.8,0.2-17.6,0.6c-12.2,0.9-24.3,3.3-35.8,7.4c-6.3,2.3-12.4,5.2-18.1,8.8c-2.9,1.8-5.8,3.7-8.5,5.8c-1.3,1-2.7,2-4,3.1
	C76.2,40.1,75.7,40.5,75.2,40.9z"/>
</svg>
