<?xml version="1.0" encoding="utf-8"?>
<!-- Generator: Adobe Illustrator 24.0.1, SVG Export Plug-In . SVG Version: 6.00 Build 0)  -->
<svg version="1.1" id="圖層_1" xmlns="http://www.w3.org/2000/svg" xmlns:xlink="http://www.w3.org/1999/xlink" x="0px" y="0px"
	 viewBox="0 0 136.1 136.1" style="enable-background:new 0 0 136.1 136.1;" xml:space="preserve">
<style type="text/css">
	.st0{fill:#FFFFFF;}
</style>
<path class="st0" d="M126.8,42.3c-0.5,0-1.1,0.1-1.7,0.2l-6.5,1.8L112,28c-1.9-4.6-7.5-8.3-12.5-8.3H36.7c-5,0-10.6,3.8-12.5,8.3
	l-6.7,16.3l-6.4-1.8c-0.5-0.2-1.1-0.2-1.7-0.2c-3,0-5.3,2.3-5.3,5.5v3.9c0,3.8,3,6.8,6.8,6.8h0.7l-1,2.6c-1.8,4.3-3.2,11.6-3.2,16.3
	v32.4c0,3.8,3,6.8,6.8,6.8H23c3.8,0,6.8-3,6.8-6.8v-8.1h76.4v8.1c0,3.8,3,6.8,6.8,6.8h8.9c3.8,0,6.8-3,6.8-6.8V77.4
	c0-4.7-1.5-11.9-3.2-16.3l-1-2.6h0.8c3.8,0,6.8-3,6.8-6.8v-3.9C132.1,44.6,129.8,42.3,126.8,42.3z M24.4,52.7L33.4,30
	c1.1-2.8,4.5-2.9,7.5-2.9h53c3,0,6.4,0.2,7.5,2.9l9.1,22.6c1.1,2.8-0.4,5-3.3,5H27.8C24.8,57.7,23.2,55.5,24.4,52.7z M44.9,86
	c0,1.5-1.3,2.7-2.7,2.7H22.9c-1.5,0-2.7-1.3-2.7-2.7v-9.3c0-1.5,1.3-2.7,2.7-2.7h19.3c1.5,0,2.7,1.3,2.7,2.7V86z M115.6,86
	c0,1.5-1.3,2.7-2.7,2.7H93.6c-1.5,0-2.7-1.3-2.7-2.7v-9.3c0-1.5,1.3-2.7,2.7-2.7h19.3c1.5,0,2.7,1.3,2.7,2.7V86z"/>
</svg>
