<?xml version="1.0" encoding="utf-8"?>
<!-- Generator: Adobe Illustrator 24.0.1, SVG Export Plug-In . SVG Version: 6.00 Build 0)  -->
<svg version="1.1" id="圖層_1" xmlns="http://www.w3.org/2000/svg" xmlns:xlink="http://www.w3.org/1999/xlink" x="0px" y="0px"
	 viewBox="0 0 136.1 136.1" style="enable-background:new 0 0 136.1 136.1;" xml:space="preserve">
<style type="text/css">
	.st0{fill:#FFFFFF;}
</style>
<g>
	<g>
		<path class="st0" d="M4.2,100.5l4.3,4.3c1.4,1.4,3.2,2.1,5.1,2.1s3.7-0.7,5.1-2.1L68,55.6l49.3,49.3c1.4,1.4,3.2,2.1,5.1,2.1
			s3.7-0.7,5.1-2.1l4.3-4.3c2.8-2.8,2.8-7.4,0-10.2L73.2,31.4c-1.3-1.4-3.1-2.4-5.1-2.4l0,0c-1.9,0-3.7,1-5.1,2.3L4.2,90.2
			c-1.4,1.4-2.1,3.2-2.1,5.2C2.1,97.3,2.9,99.1,4.2,100.5z"/>
	</g>
</g>
</svg>
