<?xml version="1.0" encoding="utf-8"?>
<!-- Generator: Adobe Illustrator 24.0.1, SVG Export Plug-In . SVG Version: 6.00 Build 0)  -->
<svg version="1.1" id="圖層_1" xmlns="http://www.w3.org/2000/svg" xmlns:xlink="http://www.w3.org/1999/xlink" x="0px" y="0px"
	 viewBox="0 0 390.8 117.5" style="enable-background:new 0 0 390.8 117.5;" xml:space="preserve">
<style type="text/css">
	.st0{fill:#FFFFFF;}
	.st1{fill:#9FCCE2;}
	.st2{fill:#4EA2D1;}
	.st3{fill:#959798;}
	.st4{clip-path:url(#SVGID_2_);fill:#9FCCE2;}
	.st5{clip-path:url(#SVGID_4_);fill:#9FCCE2;}
	.st6{clip-path:url(#SVGID_6_);fill:#9FCCE2;}
	.st7{clip-path:url(#SVGID_8_);fill:#9FCCE2;}
	.st8{clip-path:url(#SVGID_10_);fill:#9FCCE2;}
</style>
<g>
	<g>
		<path class="st0" d="M185,25c6.3-6.9,12.7-12.9,18.9-17.2c1.2-0.9,1.6-2.5,0.9-3.8c-0.5-1-1.6-1.6-2.7-1.6c-0.3,0-0.6,0.1-1,0.2
			c-0.7,0.2-10,3.5-24.9,12.7l0.3-5.2c0-0.1,0-0.1,0-0.2c0-0.9-0.3-2.9-3.5-3.1c-0.4,0-1.1-0.1-1.8-0.1c-1.5-0.1-3.4-0.1-5.4-0.2
			c-3.9-0.1-8.1-0.2-8.9-0.2c-6.6,0-12.4,0.2-17.9,0.6c-12.5,0.9-24.8,3.4-36.6,7.5c-6.5,2.4-12.8,5.4-18.7,9.1
			c-3,1.9-6,3.8-8.7,5.9c-1.3,1-2.7,2.1-4,3.1c-0.1,0.1-0.3,0.2-0.4,0.3c-0.4,0.3-0.9,0.6-1.3,1c-0.2,0.2-0.3,0.3-0.5,0.5
			c-0.2,0.3-0.4,0.5-0.6,0.7c-0.1,0.1-0.1,0.2-0.2,0.2c-0.5,0.2-0.9,0.3-1.4,0.4c0,0-0.1,0-0.1,0c-2.4,0.5-4.9,0.6-7.5,0.8
			c-1.8,0.1-3.7,0.3-5.6,0.5c-6.1,0.7-12.2,1.8-18.2,3.4c-2,0.6-3.9,1.3-5.7,1.9c-0.7,0.3-1.4,0.5-2.1,0.8
			c-3.3,1.2-19.8,8.7-25.8,41l-0.1,0.4c0,0.2,0,0.4,0,0.5v0.4c0,0.1,0,0.2,0,0.3C2,90.2,5.3,98.6,15.3,99.4c0.1,0,0.2,0,0.2,0h13.3
			c3.1,9,9.8,14.7,19.1,16.2c1.7,0.3,3.5,0.4,5.2,0.4c7.6,0,17.9-2.9,24.9-16.6h32.9c1.7,0,3-1.3,3-3v-6c0-1.7-1.3-3-3-3H82.4
			c0,0,0,0,0,0c0-0.1,0-0.2,0.1-0.3c0.6-3.3-1.6-6.4-4.9-6.9c-0.3-0.1-0.7-0.1-1-0.1c-2.5,0-4.8,1.6-5.6,4c0,0.1-0.1,0.2-0.1,0.3
			C67.3,97.6,61.4,104,52.9,104c-1,0-2.1-0.1-3.2-0.3c-11.5-1.8-10.8-15-10.7-17.1c0.6-3.2-1.5-6.2-4.6-6.9
			c-0.4-0.1-0.9-0.1-1.3-0.1c-2.8,0-5.3,2-5.9,4.7c-0.1,0.4-0.1,0.7-0.1,1.1c-0.1,0.7-0.1,1.4-0.1,2.1H16c-1.1-0.1-2-0.9-2.3-2
			c0.7-3.6,1.6-7.2,2.8-10.7l0.2-0.5c0.5-1.4,0.7-1.9,1.4-2.4c0,0,0.1,0,0.1-0.1c1.5-1.2,3.3-1.9,5.3-2.1c1.4,0,2.7,0,4.1-0.1
			l9.8-0.6l24.8-1.6l7.7-0.5c0.8-0.1,1.5-0.4,2.1-1s0.8-1.4,0.7-2.2l-0.2-2.6c-0.1-1.6-1.4-2.8-3-2.8c-0.1,0-0.1,0-0.2,0l-17.1,1.1
			c-2.9,0.2-5.8,0.4-8.7,0.5c-5.3,0.3-10.7,0.7-16.1,1c-0.9,0.1-1.9,0.1-2.9,0.1c-0.3,0-0.5,0-0.8,0c4-5.1,7.6-6.7,7.9-6.8
			c0,0,0.1,0,0.1,0l0.3-0.1c0,0,0.1,0,0.1,0c8.9-4,19.3-5,29.4-5.9l1.8-0.2c2.5-0.1,4.9-0.5,7.3-1.1c0,0,0,0,0.1,0
			c1.7-0.4,3.3-1.2,4.8-2.2c1.1-0.8,1.8-1.6,2.4-2.3c0.3-0.4,0.7-0.8,1-1c0.8-0.7,1.7-1.4,2.6-2.1c0.3-0.2,0.5-0.4,0.8-0.6
			c2.5-1.9,5.1-3.7,7.7-5.3c5.2-3.1,10.7-5.8,16.5-7.8c11.4-3.9,23.3-6.3,35.3-6.9c5.2-0.3,10.5-0.5,15.6-0.5c4.5,0,9,0.1,13.4,0.4
			c-11.3,7.5-25.1,18.1-40.4,32.9c-4.2-4.9-13.6-15.5-19.7-19c-0.5-0.3-1-0.4-1.5-0.4c-0.5,0-1,0.1-1.4,0.4l-23,12.5
			c-1,0.5-1.6,1.6-1.6,2.7c0,1.1,0.6,2.1,1.6,2.6c0.2,0.1,14.6,7.8,30.5,31.3c0,0,0,0,0,0c0.5,0.8,1,1.5,1.5,2.3
			c0.1,0.2,0.3,0.4,0.4,0.6c0.5,0.8,1.1,1.7,1.6,2.6c0.1,0.1,0.1,0.2,0.2,0.3c2.5,4,4.9,8.3,7.4,13.1c0,0.1,0.1,0.1,0.1,0.2
			c0,0.1,0.1,0.1,0.1,0.2c0,0.1,0.1,0.1,0.1,0.2c0,0,0.1,0.1,0.1,0.1c0.1,0.1,0.1,0.1,0.2,0.2c0,0,0.1,0.1,0.1,0.1
			c0.1,0,0.1,0.1,0.2,0.1c0,0,0.1,0.1,0.1,0.1c0.1,0,0.1,0.1,0.2,0.1c0.1,0,0.1,0.1,0.2,0.1c0.1,0,0.1,0,0.2,0.1
			c0.1,0,0.1,0,0.2,0.1c0.1,0,0.1,0,0.2,0.1c0.1,0,0.1,0,0.2,0c0.1,0,0.2,0,0.2,0c0.1,0,0.1,0,0.2,0c0,0,0,0,0,0c0,0,0,0,0,0
			c0,0,0,0,0.1,0c0.3,0,0.5,0,0.8-0.1c0,0,0.1,0,0.1,0c0.2-0.1,0.4-0.1,0.6-0.3c0.1,0,0.1-0.1,0.2-0.2c0.1-0.1,0.3-0.2,0.4-0.3
			c0.1-0.1,0.1-0.2,0.2-0.2c0.1-0.1,0.2-0.3,0.3-0.4c0.3-0.5,25.9-45.9,53-75.4C184.9,25.2,184.9,25.1,185,25z M76.5,83.1
			c0.2,0,0.3,0,0.5,0C76.8,83.1,76.7,83.1,76.5,83.1C76.5,83.1,76.5,83.1,76.5,83.1z M49.2,106.7C49.2,106.7,49.2,106.7,49.2,106.7
			C49.2,106.7,49.2,106.7,49.2,106.7c-0.7-0.1-1.4-0.3-2-0.4C47.9,106.4,48.5,106.6,49.2,106.7z M33.1,82.6
			C33.2,82.6,33.2,82.6,33.1,82.6c-0.2,0-0.3,0-0.5,0C32.8,82.6,33,82.6,33.1,82.6z M15.9,90.4h14.2v0L15.9,90.4
			c-0.3,0-0.7-0.1-1-0.2C15.2,90.4,15.5,90.4,15.9,90.4z M15.5,96.4L15.5,96.4c-0.6,0-1.1-0.1-1.6-0.2
			C14.4,96.3,14.9,96.4,15.5,96.4z M13.7,73.8c-0.7,1.9-1.2,3.8-1.8,5.7C12.5,77.6,13,75.7,13.7,73.8c0.1-0.3,0.2-0.7,0.3-1
			C13.9,73.2,13.8,73.5,13.7,73.8z M71.4,36.1c-0.1,0.1-0.2,0.2-0.3,0.3c-0.6,0.6-0.8,1.2-1.6,1.7c-0.8,0.4-1.6,0.6-2.5,0.8
			c0.9-0.1,1.7-0.4,2.5-0.8c0.8-0.4,1-1,1.6-1.7C71.3,36.3,71.3,36.2,71.4,36.1c0.2-0.2,0.5-0.4,0.7-0.6
			C71.9,35.7,71.7,35.9,71.4,36.1z M92,22.4c2.2-1.2,4.5-2.2,6.8-3.2C96.5,20.2,94.2,21.2,92,22.4z M157,9.3c-1.5,0-2.9,0-4.4,0
			C154,9.3,155.5,9.3,157,9.3c0.2,0,0.7,0,1.3,0C157.6,9.3,157.2,9.3,157,9.3z M159,9.4c0.9,0,1.9,0,3.1,0.1
			C160.9,9.4,159.9,9.4,159,9.4z"/>
		<path class="st0" d="M202.1,2.3c1.1,0,2.2,0.6,2.7,1.6c0.7,1.3,0.3,2.9-0.9,3.8c-6.2,4.4-12.6,10.4-18.9,17.2
			c-0.1,0.1-0.1,0.1-0.2,0.2c-27,29.5-52.7,75-53,75.4c-0.1,0.1-0.2,0.3-0.3,0.4c-0.1,0.1-0.1,0.2-0.2,0.2c-0.1,0.1-0.3,0.2-0.4,0.3
			c-0.1,0.1-0.1,0.1-0.2,0.2c-0.2,0.1-0.4,0.2-0.6,0.3c0,0-0.1,0-0.1,0c-0.3,0.1-0.5,0.1-0.8,0.1c0,0,0,0-0.1,0c0,0,0,0,0,0
			c0,0,0,0,0,0c-0.1,0-0.1,0-0.2,0c-0.1,0-0.2,0-0.2,0c-0.1,0-0.1,0-0.2,0c-0.1,0-0.1,0-0.2-0.1c-0.1,0-0.1,0-0.2-0.1
			c-0.1,0-0.1,0-0.2-0.1c-0.1,0-0.1-0.1-0.2-0.1c-0.1,0-0.1-0.1-0.2-0.1c-0.1,0-0.1-0.1-0.1-0.1c-0.1,0-0.1-0.1-0.2-0.1
			c0,0-0.1-0.1-0.1-0.1c-0.1-0.1-0.1-0.1-0.2-0.2c0,0-0.1-0.1-0.1-0.1c0-0.1-0.1-0.1-0.1-0.2c0-0.1-0.1-0.1-0.1-0.2
			c0-0.1-0.1-0.1-0.1-0.2c-2.4-4.8-4.9-9.1-7.4-13.1c-0.1-0.1-0.1-0.2-0.2-0.3c-0.5-0.9-1.1-1.7-1.6-2.6c-0.1-0.2-0.3-0.4-0.4-0.6
			c-0.5-0.8-1-1.6-1.5-2.3c0,0,0,0,0,0C99.6,58.2,85.1,50.4,84.9,50.4c-1-0.5-1.6-1.5-1.6-2.6c0-1.1,0.6-2.1,1.6-2.7l23-12.5
			c0.4-0.2,0.9-0.4,1.4-0.4c0.5,0,1,0.1,1.5,0.4c6.1,3.5,15.5,14.1,19.7,19c15.3-14.8,29.1-25.4,40.4-32.9c-4.5-0.2-9-0.4-13.4-0.4
			c-5.2,0-10.4,0.2-15.6,0.5c-12.1,0.7-23.9,3-35.3,6.9c-5.7,2-11.3,4.7-16.5,7.8c-2.7,1.6-5.3,3.4-7.7,5.3
			c-0.2,0.2-0.5,0.4-0.8,0.6c-0.9,0.7-1.8,1.4-2.6,2.1c-0.3,0.3-0.6,0.7-1,1c-0.6,0.7-1.4,1.6-2.4,2.3c-1.5,1-3.1,1.7-4.8,2.2
			c0,0,0,0-0.1,0c-2.4,0.6-4.9,0.9-7.3,1.1l-1.8,0.2c-10.1,0.9-20.5,1.9-29.4,5.9c0,0-0.1,0-0.1,0l-0.3,0.1c0,0-0.1,0-0.1,0
			c-0.2,0.1-3.8,1.6-7.9,6.8c0.3,0,0.5,0,0.8,0c1,0,1.9,0,2.9-0.1c5.4-0.4,10.8-0.7,16.1-1c2.9-0.2,5.8-0.4,8.7-0.5l17.1-1.1
			c0.1,0,0.1,0,0.2,0c1.6,0,2.9,1.2,3,2.8l0.2,2.6c0.1,0.8-0.2,1.6-0.7,2.2c-0.5,0.6-1.3,1-2.1,1l-7.7,0.5l-24.8,1.6l-9.8,0.6
			c-1.4,0.1-2.7,0.1-4.1,0.1c-1.9,0.1-3.8,0.8-5.3,2.1c0,0-0.1,0-0.1,0.1c-0.6,0.5-0.9,1-1.4,2.4l-0.2,0.5c-1.2,3.5-2.2,7-2.8,10.7
			c0.3,1.1,1.2,1.9,2.3,2h11c0-0.7,0.1-1.4,0.1-2.1c0-0.4,0.1-0.7,0.1-1.1c0.6-2.7,3.1-4.7,5.9-4.7c0.4,0,0.9,0,1.3,0.1
			c3.2,0.7,5.2,3.8,4.6,6.9c-0.2,2.1-0.8,15.3,10.7,17.1c1.1,0.2,2.1,0.3,3.2,0.3c8.6,0,14.4-6.4,17.9-19.7c0-0.1,0-0.2,0.1-0.3
			c0.9-2.4,3.1-4,5.6-4c0.3,0,0.7,0,1,0.1c3.3,0.6,5.5,3.7,4.9,6.9c0,0.1,0,0.2-0.1,0.3c0,0,0,0,0,0h28.4c1.7,0,3,1.3,3,3v6
			c0,1.7-1.3,3-3,3H77.9C70.9,113,60.6,116,53,116c-1.7,0-3.5-0.1-5.2-0.4c-9.3-1.5-16-7.2-19.1-16.2H15.5c-0.1,0-0.2,0-0.2,0
			C5.3,98.6,2,90.2,1.6,85.8c0-0.1,0-0.2,0-0.3v-0.4c0-0.2,0-0.4,0-0.5l0.1-0.4c6-32.3,22.5-39.8,25.8-41c0.7-0.3,1.4-0.5,2.1-0.8
			c1.8-0.7,3.7-1.4,5.7-1.9c6-1.6,12.1-2.7,18.2-3.4c1.9-0.2,3.8-0.4,5.6-0.5c2.6-0.2,5.1-0.3,7.5-0.8c0,0,0.1,0,0.1,0
			c0.5-0.1,1-0.2,1.4-0.4c0-0.1,0.1-0.2,0.2-0.2c0.2-0.2,0.3-0.5,0.6-0.7c0.2-0.2,0.3-0.4,0.5-0.5c0.4-0.4,0.9-0.7,1.3-1
			c0.1-0.1,0.3-0.2,0.4-0.3c1.3-1.1,2.7-2.1,4-3.1c2.7-2.1,5.7-4.1,8.7-5.9c5.9-3.6,12.2-6.7,18.7-9.1c11.8-4.1,24.1-6.7,36.6-7.5
			c5.5-0.4,11.3-0.6,17.9-0.6c0.7,0,5,0.1,8.9,0.2c2,0.1,4,0.1,5.4,0.2c0.8,0,1.4,0.1,1.8,0.1c3.1,0.2,3.5,2.2,3.5,3.1
			c0,0.1,0,0.1,0,0.2l-0.3,5.2C191.1,6,200.5,2.7,201.2,2.5C201.5,2.4,201.8,2.3,202.1,2.3 M152.6,9.4c1.5,0,2.9,0,4.4,0
			c0.2,0,0.7,0,1.3,0c0,0,0,0,0,0c0,0,0,0,0,0c-0.7,0-1.1,0-1.3,0C155.5,9.3,154,9.3,152.6,9.4 M159.1,9.4c0.9,0,1.9,0,3,0.1
			C161,9.4,159.9,9.4,159.1,9.4C159,9.4,159,9.4,159.1,9.4C159,9.4,159,9.4,159.1,9.4 M92,22.4c2.2-1.2,4.5-2.2,6.8-3.2
			C96.5,20.2,94.2,21.2,92,22.4 M67.2,38.8c0.9-0.1,1.7-0.4,2.5-0.8c0.8-0.4,1-1,1.6-1.7c0.1-0.1,0.2-0.2,0.3-0.3
			c0.2-0.2,0.5-0.4,0.7-0.6c-0.3,0.2-0.5,0.4-0.7,0.6c-0.1,0.1-0.2,0.2-0.3,0.3c-0.6,0.6-0.8,1.2-1.6,1.7
			C68.8,38.4,68,38.6,67.2,38.8 M11.9,79.6c0.5-1.9,1.1-3.9,1.8-5.7c0.1-0.3,0.2-0.7,0.3-1c-0.1,0.3-0.2,0.6-0.3,1
			C13,75.7,12.5,77.6,11.9,79.6 M32.6,82.6c0.2,0,0.3,0,0.5,0c0,0,0,0,0,0c0,0,0,0,0,0C33,82.6,32.8,82.6,32.6,82.6 M76.5,83.1
			C76.5,83.1,76.5,83.1,76.5,83.1c0.2,0,0.3,0,0.5,0c0,0,0,0,0,0c0,0,0,0,0,0C76.8,83.1,76.7,83.1,76.5,83.1
			C76.5,83.1,76.5,83.1,76.5,83.1 M14.9,90.3c0.3,0.1,0.6,0.1,1,0.2h14.2v0H15.9C15.5,90.4,15.2,90.4,14.9,90.3
			C14.9,90.3,14.9,90.3,14.9,90.3C14.9,90.3,14.9,90.3,14.9,90.3 M13.9,96.2c0.5,0.1,1,0.2,1.6,0.2h0C14.9,96.4,14.4,96.3,13.9,96.2
			C13.9,96.2,13.9,96.2,13.9,96.2C13.9,96.2,13.9,96.2,13.9,96.2 M47.2,106.3c0.6,0.2,1.3,0.3,2,0.4c0,0,0,0,0,0c0,0,0,0,0,0
			c0,0,0,0,0,0c0,0,0,0,0,0C48.5,106.6,47.9,106.4,47.2,106.3C47.2,106.3,47.2,106.3,47.2,106.3C47.2,106.3,47.2,106.3,47.2,106.3
			 M202.1,1.3c-0.4,0-0.9,0.1-1.3,0.2c-0.4,0.1-9.3,3.2-23.5,11.8l0.2-3.3c0-0.1,0-0.1,0-0.2c0-1.8-1.2-3.9-4.4-4.1
			c-0.4,0-1.1-0.1-1.8-0.1c-1.5-0.1-3.4-0.1-5.4-0.2c-3.9-0.1-8.2-0.2-8.9-0.2c-6.6,0-12.5,0.2-18,0.7c-12.5,0.9-24.9,3.4-36.8,7.6
			c-6.6,2.4-13,5.5-18.9,9.2c-3.1,1.9-6,3.9-8.8,6c-1.3,1-2.7,2.1-4,3.1c-0.1,0.1-0.2,0.1-0.3,0.2l0,0c-0.4,0.3-0.9,0.6-1.4,1.1
			c-0.2,0.2-0.4,0.4-0.6,0.6c-0.3,0.3-0.5,0.6-0.6,0.8c0,0,0,0,0,0c-0.3,0.1-0.6,0.2-0.9,0.2c0,0-0.1,0-0.1,0
			c-2.4,0.4-4.8,0.6-7.4,0.8c-1.8,0.1-3.7,0.3-5.6,0.5c-6.1,0.7-12.3,1.8-18.3,3.4c-2.1,0.6-4,1.3-5.8,2c-0.7,0.3-1.4,0.5-2.1,0.8
			c-3.4,1.2-20.4,9-26.4,41.8l-0.1,0.4c0,0.2-0.1,0.5-0.1,0.7v0.4c0,0.1,0,0.2,0,0.3c0.4,4.7,4,13.7,14.6,14.5c0.1,0,0.2,0,0.3,0
			h12.6c3.3,8.9,10.2,14.6,19.6,16.1c1.8,0.3,3.6,0.4,5.4,0.4c7.6,0,18.2-2.9,25.5-16.6h32.3c2.2,0,4-1.8,4-4v-6c0-2.2-1.8-4-4-4
			H83.5c0.1-3.5-2.3-6.6-5.8-7.2c-0.4-0.1-0.8-0.1-1.2-0.1c-2.9,0-5.6,1.9-6.6,4.6c0,0.1-0.1,0.2-0.1,0.3
			C66.5,96.8,60.9,103,52.9,103c-1,0-2-0.1-3-0.3c-10.4-1.7-10-13.5-9.8-16c0.6-3.7-1.7-7.2-5.4-8c-0.5-0.1-1-0.2-1.5-0.2
			c-3.3,0-6.1,2.3-6.8,5.5c-0.1,0.4-0.1,0.8-0.2,1.2c0,0.4-0.1,0.8-0.1,1.1H16c-0.6-0.1-1.1-0.5-1.3-1c0.7-3.5,1.6-6.9,2.8-10.3
			l0.2-0.5c0.5-1.4,0.6-1.7,1-2l0.1-0.1c1.3-1.1,3-1.7,4.7-1.8c1.3,0,2.7,0,4.1-0.1l9.8-0.6l24.8-1.6l7.7-0.5c1.1-0.1,2-0.5,2.7-1.4
			c0.7-0.8,1.1-1.8,1-2.9l-0.2-2.6c-0.1-2.1-1.9-3.7-4-3.7c-0.1,0-0.2,0-0.3,0l-17.1,1.1c-2.9,0.2-5.8,0.4-8.6,0.5l-0.1,0
			c-5.3,0.3-10.7,0.7-16.1,1c-0.5,0-0.9,0.1-1.4,0.1c3.3-3.6,5.9-4.7,6.1-4.8c0,0,0.1,0,0.1,0l0.3-0.1c0,0,0.1,0,0.1-0.1
			c8.7-4,19-4.9,29-5.8l1.8-0.2c2.5-0.1,5-0.5,7.5-1.1l0.1,0c1.8-0.5,3.6-1.3,5.1-2.3c1.2-0.8,2-1.8,2.6-2.5c0.3-0.4,0.6-0.7,0.9-1
			c0.7-0.7,1.7-1.4,2.5-2c0.3-0.2,0.5-0.4,0.8-0.6c2.4-1.9,5-3.6,7.6-5.2c5.1-3.1,10.6-5.7,16.3-7.7c11.3-3.9,23.1-6.2,35-6.9
			c5.2-0.3,10.4-0.5,15.6-0.5c3.4,0,6.9,0.1,10.4,0.2c-12.5,8.5-25,18.8-37.2,30.6c-5-5.8-13.4-15-19.2-18.4c-0.6-0.4-1.3-0.5-2-0.5
			c-0.7,0-1.3,0.2-1.9,0.5l-23,12.5c-1.3,0.7-2.1,2.1-2.1,3.6c0,1.5,0.8,2.8,2.2,3.5c0.1,0.1,14.4,7.8,30.1,31l0.9-0.5l-0.8,0.6
			c0.5,0.8,1,1.5,1.5,2.3l0.2,0.2l0.2,0.4c0.5,0.8,1.1,1.7,1.6,2.5l0.1,0.1l0.1,0.1c2.5,4.1,5,8.5,7.3,13c0,0.1,0.1,0.1,0.1,0.2
			l0,0.1c0,0.1,0.1,0.1,0.1,0.2c0,0.1,0.1,0.1,0.1,0.2l0.1,0.1c0,0.1,0.1,0.1,0.1,0.2c0.1,0.1,0.1,0.1,0.2,0.2l0.1,0.1
			c0,0,0.1,0.1,0.1,0.1c0.1,0.1,0.1,0.1,0.2,0.1l0.1,0.1c0.1,0,0.1,0.1,0.2,0.1c0.1,0,0.1,0.1,0.2,0.1l0.1,0c0.1,0,0.1,0.1,0.2,0.1
			c0.1,0,0.1,0.1,0.2,0.1l0.1,0c0.1,0,0.1,0.1,0.2,0.1c0.1,0,0.2,0,0.2,0.1l0,0c0.1,0,0.2,0,0.2,0.1c0.1,0,0.2,0,0.3,0l0.1,0
			c0.1,0,0.2,0,0.2,0l0.1,0c0.4,0,0.7,0,1.1-0.1c0.1,0,0.1,0,0.2-0.1c0.2-0.1,0.5-0.2,0.8-0.3c0.1-0.1,0.2-0.1,0.3-0.2l0.1-0.1
			c0.1-0.1,0.3-0.2,0.5-0.4c0.1-0.1,0.2-0.2,0.2-0.3l0.1-0.1c0.1-0.1,0.2-0.3,0.3-0.5c0.3-0.5,25.9-45.8,52.8-75.2
			c0.1-0.1,0.1-0.2,0.2-0.2l0,0c6.7-7.3,13-13.1,18.7-17.1c1.6-1.1,2.1-3.3,1.3-5.1C205,2.2,203.6,1.3,202.1,1.3L202.1,1.3z"/>
	</g>
	<g>
		<path class="st0" d="M380.4,50.1h-19c-1.2,0-2.3,0.7-2.8,1.8c-3.1,7.1-6.5,14.8-10.4,22.7c-2,4-3.9,7.7-5.5,10.9
			c0.7-2.3,1.3-4.4,1.9-6.2c3.7-11.6,6.5-20.1,8.2-25.3c0.3-0.9,0.2-1.9-0.4-2.7c-0.6-0.8-1.5-1.2-2.4-1.2h-20.6c-1,0-2,0.5-2.5,1.3
			c0,0-0.1-0.1-0.1-0.1c-0.6-0.8-1.5-1.2-2.4-1.2h-22.2c-0.7,0-1.4,0.3-1.9,0.7c-0.4-0.3-0.8-0.5-1.3-0.6c-2.6-0.5-5.2-0.8-7.8-0.8
			c-0.5,0-0.9,0-1.4,0c-0.3,0-0.5,0-0.8,0c-8.1,0-16.2,2.8-22.6,7.8c-2.8,2.2-5.2,4.9-7.2,7.8c-0.3-3.4-1.2-6.4-2.8-9
			c-2.6-4-6.3-6.5-11.3-7.4c1.6-0.2,3.3-0.5,4.9-0.9c1.8-0.3,3.5-0.8,5.2-1.4c0.8-0.3,1.4-0.8,1.7-1.6c0.4,0.7,1,1.2,1.8,1.4
			c1.9,0.5,3.8,1.1,6,1.5c1.9,0.4,3.8,0.8,5.7,1c0.1,0,0.3,0,0.4,0c1,0,2-0.5,2.5-1.4l2.1-3.2c0.6-0.9,0.6-2,0.2-2.9
			s-1.4-1.6-2.4-1.7c-0.1,0-0.1,0-0.2,0V27.2c0,0,0-0.1,0-0.1h0.4c1.7,0,3-1.3,3-3v-3c0-1.2-0.7-2.2-1.6-2.7c0-0.1-0.1-0.1-0.1-0.2
			l-1.8-2.8c-0.6-0.9-1.5-1.4-2.5-1.4c-0.1,0-0.2,0-0.3,0c-3.2,0.3-7.4,0.6-12.5,0.8c-0.1,0-0.2,0-0.3,0c-0.6-0.5-1.3-0.8-2-0.8
			c-0.1,0-0.2,0-0.3,0c-3.3,0.3-7.5,0.6-12.7,0.8c-1.6,0.1-2.9,1.4-2.9,3v2.6c0,0.1,0,0.1,0,0.2c0.1,1.1,0,2.2-0.3,3.2
			c-0.1,0.2-0.3,0.4-0.4,0.5c-0.5,0.4-0.8,1-1,1.6c-0.1,0-0.2,0-0.4,0v-3.1c1.1-0.5,1.8-1.5,1.8-2.8v-2.6c0-1.7-1.3-3-3-3h-21.8
			c-0.4,0-0.9,0.1-1.2,0.3l-2.3-0.6c-0.2-0.1-0.5-0.1-0.7-0.1c-1.3,0-2.5,0.9-2.9,2.2c-1.1,3.9-2.9,7.5-5.2,10.8
			c-0.7,1-0.8,2.3-0.1,3.3l2.1,3.4c0.2,0.4,0.5,0.7,0.8,0.9v10.9c0,1.7,1.3,3,3,3h3.9c0.3,0,0.7-0.1,1-0.2c0.4,0.2,0.9,0.3,1.4,0.3
			c0.1,0,0.2,0,0.3,0c3.4-0.4,6.9-1,10.2-2c1,0.3,2,0.6,3,0.8c2.9,0.7,5.9,1,8.8,1c0,0,0,0,0,0c0,0,0,0,0,0
			c-5.5,0.8-10.7,3.1-14.9,6.8c-1.7,1.4-3.2,3-4.6,4.8c0.8-2.4,1.5-4.4,2-6.1c0.3-0.9,0.2-1.9-0.4-2.7c-0.6-0.8-1.5-1.2-2.4-1.2
			h-20.6c-1,0-2,0.5-2.5,1.3c0,0-0.1-0.1-0.1-0.1c-0.6-0.8-1.5-1.2-2.4-1.2h-22.2c-1.4,0-2.7,1-2.9,2.4c-2.1,10.8-3.9,19.2-5.3,25.2
			l-5.3,23.3c-0.2,0.9,0,1.8,0.6,2.5s1.4,1.1,2.3,1.1h17.8c1.3,0,2.5-0.9,2.9-2.2l1.8-6.3c0.4,0.2,0.8,0.2,1.1,0.2
			c0.5,0,0.9-0.1,1.3-0.3c0.1,0,0.2-0.1,0.3-0.1l-1.2,5.1c-0.2,0.9,0,1.8,0.6,2.5s1.4,1.1,2.4,1.1h16.1c1.3,0,2.5-0.9,2.9-2.1
			c1.7-5.5,3.2-10.3,4.4-14.4c0.2,3,1,5.8,2.2,8.3c3,6.4,8.7,9.9,16.3,9.9c7,0,13.6-3,19.7-8.9c2.7-2.7,5-5.6,6.9-8.8
			c0.5,3.6,1.9,6.8,4.1,9.6c4.2,5.2,10.1,7.9,17.7,7.9c0.2,0,0.5,0,0.7,0c3.3,0,6.6-0.5,9.7-1.5c0.8-0.3,1.5-0.9,1.8-1.7
			c0.7-1.6,1.4-3.1,2-4.6l-0.6,2.7c-0.2,0.9,0,1.8,0.6,2.5s1.4,1.1,2.3,1.1h17.8c1.3,0,2.5-0.9,2.9-2.2l1.8-6.3
			c0.4,0.2,0.8,0.2,1.1,0.2c0.5,0,0.9-0.1,1.3-0.3c0.1,0,0.2-0.1,0.3-0.1l-1.2,5.1c-0.2,0.9,0,1.8,0.6,2.5s1.4,1.1,2.4,1.1h16.1
			c0.6,0,1.1-0.2,1.6-0.5c0.5,0.3,1,0.5,1.6,0.5h9.2c0.8,0,1.5-0.3,2.1-0.8c0.3,0.7,0.9,1.3,1.6,1.5c0.4,0.1,0.7,0.2,1.1,0.2
			c0.6,0,1.2-0.2,1.8-0.6c1.4-1,2.9-2,4.4-2.9c0.2,1.4,1.5,2.5,3,2.5h17.3c1.6,0,3-1.3,3-2.9c0.3-10.6,0.6-19.1,0.8-25.4
			c0.6-12,1.1-19.7,1.3-23c0.1-0.8-0.2-1.7-0.8-2.3S381.3,50.1,380.4,50.1z M261.6,21.1h12v0L261.6,21.1L261.6,21.1z M261.8,41.4
			L261.8,41.4l-2.1,2h0L261.8,41.4z M254.3,43.6l-2.2-2.2h0L254.3,43.6L254.3,43.6z M257.4,23c-0.1,0.3-0.2,0.7-0.3,1
			c-0.2,0.3-0.4,0.6-0.7,0.8c0.2-0.2,0.5-0.5,0.7-0.8C257.2,23.7,257.3,23.4,257.4,23z M246.2,21.3h10.5v0L246.2,21.3L246.2,21.3z
			 M247.3,42c0.5-0.1,1.1-0.2,1.5-0.3C248.4,41.8,247.8,41.9,247.3,42c-0.4,0.1-0.9,0.1-1.3,0.2C246.4,42.1,246.9,42.1,247.3,42z
			 M209.7,18.5c0.2-0.5,0.3-1,0.5-1.6h0C210,17.5,209.9,18,209.7,18.5z M168.4,53.1c-0.3,1.4-0.5,2.7-0.8,4
			C167.9,55.8,168.1,54.5,168.4,53.1l22.2,0v0H168.4z M185.5,83.2C185.5,83.2,185.5,83.2,185.5,83.2
			C185.5,83.2,185.5,83.2,185.5,83.2c0.2,0,0.5,0,0.7,0C186,83.2,185.7,83.2,185.5,83.2z M185.5,80.2c0,0-0.1,0-0.1,0
			c-0.1,0-0.1,0-0.2,0l4.9-15.4l-3.3,15.3C186.3,80.2,185.9,80.2,185.5,80.2z M211.2,83c0.1-1.3,0.3-2.6,0.6-3.9
			C211.5,80.5,211.3,81.8,211.2,83z M216.2,53.1h-20.6l-6.4,29.8c-0.4,0-0.8,0.1-1.1,0.1c0.4,0,0.7-0.1,1.1-0.1l6.4-29.8L216.2,53.1
			L216.2,53.1z M235.4,81.2c-0.6,2-1.5,3.8-2.9,5.5c0,0,0,0,0,0c-1.7,2.1-2.6,2.4-2.9,2.4c-0.1-0.1-0.3-0.4-0.4-1.1
			c-0.3-1.7-0.3-3.5,0.2-5.1c0,0,0,0,0-0.1c1.8-6.6,4.4-6.6,5.3-6.6c0.6,0,1,0.1,1,0.2C235.7,76.4,236.4,77.3,235.4,81.2z
			 M241.9,24.9c-0.3,0.6-0.7,1.2-1.3,1.7h0C241.2,26.1,241.6,25.5,241.9,24.9z M222.7,19.9L222.7,19.9l-0.3,0.8L222.7,19.9z
			 M214.4,17.3l0.1,2.6L214.4,17.3L214.4,17.3z M215,33.3c-0.2,0.5-0.5,1-0.8,1.5l0.9,0.4l-0.9-0.4C214.5,34.3,214.8,33.8,215,33.3z
			 M213.7,38.9L213.7,38.9c1.4-0.5,2.7-1.2,4-2c0.7-0.4,1.4-0.9,2-1.5c-0.6,0.6-1.3,1.1-2,1.5C216.5,37.7,215.1,38.4,213.7,38.9z
			 M218.9,42.1c0.7-0.1,1.4-0.2,2.1-0.4l0,0C220.3,41.8,219.6,42,218.9,42.1z M222.2,32.7L222.2,32.7c0,0.1,0,0.2,0,0.3
			C222.2,32.9,222.2,32.8,222.2,32.7z M225,36c-0.2,0-0.4,0-0.5,0c0.5,0,0.9,0,1.4,0C225.6,36,225.3,36,225,36z M230.6,28.8h-11.2v0
			L230.6,28.8L230.6,28.8z M230.6,26.1h-11.2v0L230.6,26.1L230.6,26.1z M234.4,28.8h3v0L234.4,28.8L234.4,28.8z M236.3,39.5
			c0.1-0.3,0.1-0.6,0.1-0.9V37c0.3-0.2,0.6-0.4,0.9-0.7h0.1c1.7,0,3-1.3,3-3v-3.2l1.2,0.9v8.8c-0.2,0-0.3,0-0.5,0.1
			c-0.6,0.1-1.1,0.3-1.6,0.7c-0.5-0.6-1.3-0.9-2.1-0.9C237,39.5,236.7,39.5,236.3,39.5z M239.3,51.3c0.4,0,0.8-0.1,1.2-0.1
			c0,0,0,0,0.1,0C240.1,51.3,239.7,51.3,239.3,51.3z M240.6,48.3L240.6,48.3C240.5,48.3,240.5,48.3,240.6,48.3
			c-1.2,0-2.3,0.1-3.4,0.2c1.1-0.2,1.9-1,2.3-2.1l0.3-0.9l1.6,2.2c0.2,0.3,0.4,0.5,0.7,0.6C241.5,48.3,241,48.3,240.6,48.3z
			 M289.1,52.5c0.3,0,0.5,0,0.8,0c0.4,0,0.9,0,1.3,0c0.2,0,0.3,0,0.5,0c-0.6,0-1.2,0-1.8,0c-0.4,0-0.8,0-1.1,0
			C288.9,52.5,289,52.5,289.1,52.5z M275.6,103.1c-0.2,0-0.4,0-0.7,0c0.6,0,1.1,0,1.7,0C276.3,103.1,276,103.1,275.6,103.1z
			 M293.9,77.8l-2.8,12.3c0,0,0,0,0,0c-0.6-0.6-1.4-0.9-2.1-0.9c-0.5,0-0.9,0.1-1.3,0.3c-1.6,0.8-3.3,1.2-5.1,1.2
			c-3,0-3.9-1.2-4.2-1.6c-0.3-0.4-1.2-1.6-0.4-4.6c0,0,0-0.1,0-0.1c0.7-2.8,2.3-5.2,4.7-6.8c2-1.4,4.5-2.1,7-2.1l0.2,0
			c0,0,0,0,0.1,0c0,0,0.1,0,0.1,0c0.1,0,0.2,0,0.4,0c1,0,2,0.1,3,0.4c0.3,0.1,0.6,0.1,0.8,0.1c0.1,0,0.1,0,0.2,0
			C294.2,76.6,294,77.2,293.9,77.8z M298.4,53.2c-0.7-0.1-1.3-0.2-2-0.3C297.1,53,297.7,53.1,298.4,53.2L298.4,53.2z M302.2,53.1
			c-0.3,1.4-0.5,2.7-0.8,4C301.6,55.8,301.9,54.5,302.2,53.1l22.2,0v0H302.2z M319.3,83.2C319.3,83.2,319.3,83.2,319.3,83.2
			C319.3,83.2,319.3,83.2,319.3,83.2c0.2,0,0.5,0,0.7,0C319.7,83.2,319.5,83.2,319.3,83.2z M319.3,80.2c0,0-0.1,0-0.1,0
			c-0.1,0-0.1,0-0.2,0l4.9-15.4l-3.3,15.3C320.1,80.2,319.6,80.2,319.3,80.2z M329.4,53.1L323,82.9c-0.4,0-0.8,0.1-1.1,0.1
			c0.4,0,0.7-0.1,1.1-0.1L329.4,53.1l20.6,0v0H329.4z M357.5,89.1c0.1-0.2,0.3-0.4,0.4-0.7c0,0.2,0,0.4,0,0.6
			C357.7,89,357.6,89.1,357.5,89.1z M380.4,53.1h-19c-3.1,7.2-6.6,14.8-10.4,22.8c-0.6,1.1-1.1,2.2-1.7,3.3c0.5-1.1,1.1-2.2,1.7-3.3
			c3.9-8,7.4-15.6,10.4-22.8L380.4,53.1L380.4,53.1z"/>
		<path class="st0" d="M210.2,13.9c0.2,0,0.5,0,0.7,0.1l2.3,0.6c0.4-0.2,0.8-0.3,1.2-0.3h21.8c1.7,0,3,1.3,3,3v2.6
			c0,1.2-0.8,2.3-1.8,2.8v3.1c0.1,0,0.2,0,0.4,0c0.1-0.6,0.5-1.2,1-1.6c0.2-0.1,0.3-0.3,0.4-0.5c0.3-1,0.4-2.1,0.3-3.2
			c0-0.1,0-0.1,0-0.2v-2.6c0-1.6,1.3-2.9,2.9-3c5.1-0.2,9.4-0.4,12.7-0.8c0.1,0,0.2,0,0.3,0c0.8,0,1.5,0.3,2,0.8c0.1,0,0.2,0,0.3,0
			c5.1-0.2,9.3-0.4,12.5-0.8c0.1,0,0.2,0,0.3,0c1,0,2,0.5,2.5,1.4l1.8,2.8c0,0.1,0.1,0.1,0.1,0.2c1,0.5,1.6,1.5,1.6,2.7v3
			c0,1.7-1.3,3-3,3h-0.4c0,0,0,0.1,0,0.1v12.4c0.1,0,0.1,0,0.2,0c1,0.1,2,0.7,2.4,1.7s0.4,2.1-0.2,2.9l-2.1,3.2
			c-0.6,0.9-1.5,1.4-2.5,1.4c-0.1,0-0.3,0-0.4,0c-1.9-0.3-3.9-0.6-5.7-1c-2.2-0.5-4.2-1-6-1.5c-0.8-0.2-1.4-0.7-1.8-1.4
			c-0.3,0.7-0.9,1.3-1.7,1.6c-1.7,0.6-3.5,1.1-5.2,1.4c-1.6,0.4-3.3,0.6-4.9,0.9c4.9,0.9,8.7,3.4,11.3,7.4c1.6,2.6,2.6,5.6,2.8,9
			c2-2.9,4.4-5.6,7.2-7.8c6.4-5,14.4-7.8,22.6-7.8c0.3,0,0.5,0,0.8,0c0.5,0,0.9,0,1.4,0c2.6,0,5.2,0.3,7.8,0.8
			c0.5,0.1,0.9,0.3,1.3,0.6c0.5-0.4,1.2-0.7,1.9-0.7h22.2c1,0,1.9,0.5,2.4,1.2c0,0,0.1,0.1,0.1,0.1c0.5-0.8,1.5-1.3,2.5-1.3H350
			c1,0,1.9,0.5,2.4,1.2c0.6,0.8,0.7,1.8,0.4,2.7c-1.7,5.1-4.5,13.7-8.2,25.3c-0.5,1.8-1.2,3.9-1.9,6.2c1.7-3.3,3.5-6.9,5.5-10.9
			c3.8-7.9,7.3-15.6,10.4-22.7c0.5-1.1,1.6-1.8,2.8-1.8h19c0.8,0,1.6,0.4,2.2,1c0.6,0.6,0.9,1.4,0.8,2.3c-0.3,3.3-0.7,11-1.3,23
			c-0.3,6.3-0.5,14.8-0.8,25.4c0,1.6-1.4,2.9-3,2.9h-17.3c-1.5,0-2.7-1.1-3-2.5c-1.5,0.9-3,1.8-4.4,2.9c-0.5,0.4-1.1,0.6-1.8,0.6
			c-0.4,0-0.7-0.1-1.1-0.2c-0.7-0.3-1.3-0.8-1.6-1.5c-0.6,0.5-1.3,0.8-2.1,0.8h-9.2c-0.6,0-1.1-0.2-1.6-0.5c-0.5,0.3-1,0.5-1.6,0.5
			h-16.1c-0.9,0-1.8-0.4-2.4-1.1c-0.6-0.7-0.8-1.7-0.6-2.5l1.2-5.1c-0.1,0-0.2,0.1-0.3,0.1c-0.4,0.2-0.9,0.3-1.3,0.3
			c-0.4,0-0.8-0.1-1.1-0.2l-1.8,6.3c-0.4,1.3-1.5,2.2-2.9,2.2h-17.8c-0.9,0-1.8-0.4-2.3-1.1c-0.6-0.7-0.8-1.6-0.6-2.5l0.6-2.7
			c-0.7,1.5-1.4,3-2,4.6c-0.3,0.8-1,1.4-1.8,1.7c-3.1,1-6.4,1.5-9.7,1.5c-0.2,0-0.5,0-0.7,0c-7.6,0-13.5-2.7-17.7-7.9
			c-2.2-2.8-3.5-6-4.1-9.6c-1.9,3.2-4.2,6.2-6.9,8.8c-6,5.9-12.7,8.9-19.7,8.9c-7.6,0-13.2-3.4-16.3-9.9c-1.2-2.5-1.9-5.3-2.2-8.3
			c-1.3,4.2-2.8,9-4.4,14.4c-0.4,1.3-1.6,2.1-2.9,2.1h-16.1c-0.9,0-1.8-0.4-2.4-1.1c-0.6-0.7-0.8-1.7-0.6-2.5L183,96
			c-0.1,0-0.2,0.1-0.3,0.1c-0.4,0.2-0.9,0.3-1.3,0.3c-0.4,0-0.8-0.1-1.1-0.2l-1.8,6.3c-0.4,1.3-1.5,2.2-2.9,2.2h-17.8
			c-0.9,0-1.8-0.4-2.3-1.1c-0.6-0.7-0.8-1.6-0.6-2.5l5.3-23.3c1.4-6,3.2-14.5,5.3-25.2c0.3-1.4,1.5-2.4,2.9-2.4h22.2
			c1,0,1.9,0.5,2.4,1.2c0,0,0.1,0.1,0.1,0.1c0.5-0.8,1.5-1.3,2.5-1.3h20.6c1,0,1.9,0.5,2.4,1.2c0.6,0.8,0.7,1.8,0.4,2.7
			c-0.6,1.7-1.2,3.7-2,6.1c1.4-1.8,2.9-3.4,4.6-4.8c4.2-3.7,9.4-6.1,14.9-6.8c0,0,0,0,0,0c0,0,0,0,0,0c-3,0-5.9-0.4-8.8-1
			c-1-0.2-2-0.5-3-0.8c-3.3,1-6.8,1.6-10.2,2c-0.1,0-0.2,0-0.3,0c-0.5,0-1-0.1-1.4-0.3c-0.3,0.1-0.6,0.2-1,0.2h-3.9
			c-1.7,0-3-1.3-3-3V34.6c-0.3-0.2-0.6-0.5-0.8-0.9l-2.1-3.4c-0.6-1-0.6-2.3,0.1-3.3c2.4-3.3,4.1-6.9,5.2-10.8
			C207.7,14.8,208.9,13.9,210.2,13.9 M209.7,18.5c0.2-0.5,0.3-1,0.5-1.6h0C210,17.5,209.9,18,209.7,18.5 M214.5,19.9l-0.1-2.6h0
			L214.5,19.9 M222.4,20.7l0.3-0.8h0L222.4,20.7 M261.6,21.1h12v0L261.6,21.1L261.6,21.1 M246.2,21.3h10.5v0L246.2,21.3L246.2,21.3
			 M256.4,24.8c0.2-0.2,0.5-0.5,0.7-0.8c0.1-0.3,0.2-0.6,0.3-1c-0.1,0.3-0.2,0.7-0.3,1C256.9,24.3,256.7,24.6,256.4,24.8
			 M240.6,26.6L240.6,26.6c0.5-0.5,1-1,1.3-1.7C241.6,25.5,241.2,26.1,240.6,26.6 M219.4,26.1h11.2v0L219.4,26.1L219.4,26.1
			 M234.4,28.8h3v0L234.4,28.8L234.4,28.8 M219.4,28.8h11.2v0L219.4,28.8L219.4,28.8 M239.5,40.5c0.4-0.4,1-0.6,1.6-0.7
			c0.2,0,0.3,0,0.5-0.1v-8.8l-1.2-0.9v3.2c0,1.7-1.3,3-3,3h-0.1c-0.3,0.3-0.6,0.5-0.9,0.7v1.7c0,0.3,0,0.6-0.1,0.9
			c0.4,0,0.8,0,1.2,0C238.2,39.6,239,39.9,239.5,40.5 M222.2,32.8c0,0.1,0,0.1,0,0.2c0,0,0,0,0,0c0,0,0,0,0,0
			C222.2,32.9,222.2,32.9,222.2,32.8c0,0,0-0.1,0-0.1v0C222.2,32.7,222.2,32.8,222.2,32.8 M215,35.1l-0.9-0.4c0.3-0.5,0.6-1,0.8-1.5
			c-0.2,0.5-0.5,1-0.9,1.5L215,35.1 M213.7,38.9c1.4-0.5,2.7-1.2,4-2c0.7-0.4,1.4-0.9,2-1.5c-0.6,0.6-1.3,1.1-2,1.5
			C216.5,37.7,215.1,38.4,213.7,38.9L213.7,38.9 M224.8,36c-0.1,0-0.2,0-0.3,0c0.2,0,0.4,0,0.5,0c0.3,0,0.6,0,0.9,0
			C225.5,36,225.1,36,224.8,36 M259.6,43.4L259.6,43.4l2.1-2h0L259.6,43.4 M254.3,43.6L254.3,43.6l-2.2-2.2h0L254.3,43.6
			 M218.9,42.1c0.7-0.1,1.4-0.2,2.1-0.4l0,0C220.3,41.8,219.6,42,218.9,42.1 M246,42.2c0.5-0.1,0.9-0.1,1.3-0.2
			c0.5-0.1,1.1-0.2,1.5-0.3c-0.5,0.1-1,0.2-1.5,0.3C246.9,42.1,246.4,42.1,246,42.2 M237.1,48.5c1.1-0.1,2.2-0.2,3.4-0.2
			c0,0,0,0,0,0l0.1,0c0.5,0,1,0,1.4,0c-0.3-0.2-0.5-0.4-0.7-0.6l-1.6-2.2l-0.3,0.9C239.1,47.4,238.2,48.2,237.1,48.5 M239.3,51.3
			c0.4,0,0.8-0.1,1.2-0.1c0,0,0,0,0,0c0,0,0,0,0,0c0,0,0,0,0,0c0,0,0,0,0,0C240.1,51.3,239.7,51.3,239.3,51.3 M289.9,52.5
			c-0.3,0-0.5,0-0.8,0c-0.1,0-0.2,0-0.3,0c0.2,0,0.4,0,0.6,0C289.5,52.5,289.7,52.5,289.9,52.5c0.4,0,0.7,0,1.1,0c0.2,0,0.5,0,0.7,0
			c-0.2,0-0.3,0-0.5,0C290.8,52.5,290.3,52.5,289.9,52.5 M298.4,53.2L298.4,53.2c-0.7-0.1-1.3-0.2-2-0.3
			C297.1,53,297.7,53.1,298.4,53.2 M349.3,79.2c0.5-1.1,1.1-2.2,1.7-3.3c3.9-8,7.4-15.6,10.4-22.8h19v0h-19
			c-3.1,7.2-6.6,14.8-10.4,22.8C350.4,77.1,349.9,78.2,349.3,79.2 M321.9,83c0.4,0,0.7-0.1,1.1-0.1l6.4-29.8H350v0h-20.6L323,82.9
			C322.6,83,322.2,83,321.9,83 M301.4,57.1c0.3-1.3,0.5-2.6,0.8-4h22.2v0h-22.2C301.9,54.5,301.6,55.8,301.4,57.1 M188.1,83
			c0.4,0,0.7-0.1,1.1-0.1l6.4-29.8h20.6v0h-20.6l-6.4,29.8C188.8,83,188.5,83,188.1,83 M167.6,57.1c0.3-1.3,0.5-2.6,0.8-4h22.2v0
			h-22.2C168.1,54.5,167.9,55.8,167.6,57.1 M318.9,80.2c0.1,0,0.1,0,0.2,0c0,0,0.1,0,0.1,0c0.4,0,0.8,0,1.3-0.1l3.3-15.3L318.9,80.2
			 M185.2,80.2c0.1,0,0.1,0,0.2,0c0,0,0.1,0,0.1,0c0.3,0,0.8,0,1.3-0.1l3.3-15.3L185.2,80.2 M289.8,75.5
			C289.7,75.5,289.7,75.5,289.8,75.5l-0.3,0c-2.5,0-4.9,0.7-7,2.1c-2.3,1.6-4,4-4.7,6.8c0,0,0,0.1,0,0.1c-0.8,3,0.1,4.2,0.4,4.6
			c0.3,0.4,1.2,1.6,4.2,1.6c1.8,0,3.5-0.5,5.1-1.2c0.4-0.2,0.9-0.3,1.3-0.3c0.8,0,1.6,0.3,2.1,0.9c0,0,0,0,0,0l2.8-12.3
			c0.1-0.6,0.3-1.2,0.4-1.8c-0.1,0-0.1,0-0.2,0c-0.3,0-0.6,0-0.8-0.1c-1-0.3-2-0.4-3-0.4C290.1,75.5,290,75.5,289.8,75.5
			C289.8,75.5,289.8,75.5,289.8,75.5 M229.6,89.1c0.3,0,1.2-0.3,2.9-2.4c0,0,0,0,0,0c1.3-1.6,2.3-3.5,2.9-5.5c1-3.8,0.3-4.8,0.3-4.8
			c-0.1-0.1-0.4-0.2-1-0.2c-0.9,0-3.5,0-5.3,6.6c0,0,0,0,0,0.1c-0.5,1.7-0.6,3.4-0.2,5.1C229.4,88.6,229.5,89,229.6,89.1 M211.2,83
			c0.1-1.3,0.3-2.6,0.6-3.9C211.5,80.5,211.3,81.8,211.2,83 M319.3,83.2C319.3,83.2,319.3,83.2,319.3,83.2
			C319.3,83.2,319.3,83.2,319.3,83.2C319.3,83.2,319.3,83.2,319.3,83.2c0.2,0,0.5,0,0.8,0C319.7,83.2,319.5,83.2,319.3,83.2
			C319.3,83.2,319.3,83.2,319.3,83.2 M185.5,83.2C185.5,83.2,185.5,83.2,185.5,83.2C185.5,83.2,185.5,83.2,185.5,83.2
			C185.5,83.2,185.5,83.2,185.5,83.2c0.2,0,0.5,0,0.7,0C186,83.2,185.7,83.2,185.5,83.2C185.5,83.2,185.5,83.2,185.5,83.2
			 M357.5,89.1c0.1,0,0.3-0.1,0.4-0.1c0-0.2,0-0.4,0-0.6C357.7,88.6,357.6,88.9,357.5,89.1 M275.3,103.1c-0.1,0-0.2,0-0.3,0
			c0,0,0,0,0,0c0,0,0,0,0,0c0.2,0,0.4,0,0.7,0c0.3,0,0.7,0,1,0C276.2,103.1,275.7,103.1,275.3,103.1 M210.2,12.9
			c-1.8,0-3.4,1.2-3.8,2.9c-1.1,3.8-2.8,7.3-5.1,10.5c-0.9,1.3-1,3.1-0.2,4.4l2.1,3.5c0.2,0.3,0.4,0.6,0.7,0.8v10.4
			c0,1.6,1,3,2.3,3.6h-10.6c-0.9,0-1.8,0.3-2.5,0.9c-0.7-0.6-1.6-0.9-2.5-0.9h-22.2c-1.9,0-3.6,1.4-3.9,3.2
			c-2.1,10.7-3.9,19.2-5.3,25.2l-5.3,23.3c-0.3,1.2,0,2.4,0.8,3.4c0.8,1,1.9,1.5,3.1,1.5h17.8c1.8,0,3.4-1.2,3.8-2.9l1.6-5.4
			c0.2,0,0.3,0,0.5,0c0.1,0,0.2,0,0.3,0l-0.8,3.4c-0.3,1.2,0,2.4,0.8,3.4c0.8,1,1.9,1.5,3.1,1.5h16.1c1.8,0,3.3-1.1,3.8-2.8
			c1.2-3.7,2.2-7.2,3.2-10.3c0.4,1.5,0.9,3,1.5,4.3c3.2,6.8,9.2,10.4,17.2,10.4c7.3,0,14.2-3.1,20.4-9.1c2.1-2.1,4-4.4,5.7-6.9
			c0.7,2.8,2,5.3,3.8,7.5c4.4,5.5,10.6,8.3,18.5,8.3c0.2,0,0.5,0,0.7,0c3.4,0,6.8-0.5,10-1.6c1-0.3,1.8-1,2.3-2
			c0.1,0.2,0.3,0.4,0.4,0.6c0.8,1,1.9,1.5,3.1,1.5h17.8c1.8,0,3.4-1.2,3.8-2.9l1.6-5.4c0.2,0,0.3,0,0.5,0c0.1,0,0.2,0,0.3,0
			l-0.8,3.4c-0.3,1.2,0,2.4,0.8,3.4c0.8,1,1.9,1.5,3.1,1.5h16.1c0.6,0,1.1-0.1,1.6-0.3c0.5,0.2,1.1,0.3,1.6,0.3h9.2
			c0.6,0,1.3-0.1,1.8-0.4c0.4,0.5,0.9,0.8,1.5,1.1c0.5,0.2,1,0.3,1.5,0.3c0.8,0,1.7-0.3,2.3-0.8c1.1-0.8,2.2-1.5,3.3-2.2
			c0.7,1.2,2,2,3.5,2h17.3c2.2,0,3.9-1.7,4-3.9c0.3-10.6,0.6-19.1,0.8-25.4c0.6-12,1.1-19.7,1.3-23c0.1-1.1-0.3-2.2-1-3
			c-0.8-0.8-1.8-1.3-2.9-1.3h-19c-1.6,0-3,1-3.7,2.4c-3,7.1-6.5,14.7-10.4,22.6c-0.1,0.1-0.1,0.2-0.2,0.3c2.9-9,5.1-15.7,6.5-20.1
			c0.4-1.2,0.2-2.6-0.5-3.6c-0.7-1-2-1.7-3.2-1.7h-20.6c-0.9,0-1.8,0.3-2.5,0.9c-0.7-0.6-1.6-0.9-2.5-0.9h-22.2
			c-0.7,0-1.4,0.2-2,0.5c-0.3-0.2-0.7-0.3-1-0.4c-2.6-0.5-5.3-0.8-8-0.8c-0.5,0-0.9,0-1.4,0c-0.3,0-0.5,0-0.8,0
			c-8.4,0-16.6,2.8-23.2,8c-2.2,1.7-4.2,3.8-6,6c-0.5-2.6-1.4-4.9-2.7-6.9c-1.9-3-4.5-5.2-7.7-6.6c0.3-0.1,0.5-0.1,0.7-0.2
			c1.8-0.3,3.6-0.8,5.4-1.4c0.5-0.2,1-0.5,1.4-0.9c0.4,0.3,0.9,0.6,1.4,0.8c1.9,0.6,3.9,1.1,6.1,1.6c1.9,0.4,3.8,0.8,5.8,1.1
			c0.2,0,0.4,0,0.6,0c1.4,0,2.6-0.7,3.4-1.8l2.1-3.2c0.8-1.2,0.9-2.7,0.2-3.9c-0.5-1-1.4-1.8-2.5-2.1V28.1c1.9-0.3,3.4-1.9,3.4-4v-3
			c0-1.4-0.7-2.7-1.9-3.4c0,0,0,0,0,0l-1.8-2.8c-0.7-1.1-2-1.8-3.4-1.8c-0.1,0-0.3,0-0.4,0c-3.2,0.3-7.3,0.6-12.4,0.8
			c-0.7-0.5-1.5-0.8-2.4-0.8c-0.1,0-0.3,0-0.4,0c-3.2,0.3-7.5,0.6-12.6,0.8c-1.1,0-2.1,0.5-2.8,1.2c-0.7-1.1-1.9-1.8-3.3-1.8h-21.8
			c-0.5,0-0.9,0.1-1.3,0.2l-2-0.5C210.8,13,210.5,12.9,210.2,12.9L210.2,12.9z M237.7,37.3c1.1-0.1,2.2-0.7,2.8-1.6v3.2
			c-0.3,0.1-0.7,0.2-1,0.4c-0.6-0.4-1.4-0.7-2.1-0.7c0,0,0,0-0.1,0v-1C237.5,37.4,237.6,37.4,237.7,37.3L237.7,37.3z M217.3,49.3
			c2.5-0.4,4.9-0.9,7.3-1.6c0.9,0.3,1.9,0.6,2.8,0.8c1,0.2,2,0.4,2.9,0.6c-3.4,1.3-6.6,3.1-9.4,5.6c-0.5,0.4-1,0.9-1.5,1.4
			c0.2-0.6,0.4-1.1,0.5-1.6c0.4-1.2,0.2-2.6-0.5-3.6C218.9,50.1,218.2,49.5,217.3,49.3L217.3,49.3z M289.8,76.5l0.1,0
			c0.1,0,0.2,0,0.3,0c0.9,0,1.9,0.1,2.7,0.4c0,0,0.1,0,0.1,0c-0.1,0.2-0.1,0.4-0.2,0.7l-2.5,10.9c-0.5-0.2-1-0.3-1.5-0.3
			c-0.6,0-1.2,0.1-1.8,0.4c-1.4,0.7-3,1.1-4.6,1.1c-2.5,0-3.2-0.9-3.4-1.2c-0.2-0.3-0.9-1.2-0.3-3.7l0-0.1c0.6-2.5,2.1-4.7,4.3-6.2
			c1.9-1.3,4.1-2,6.4-2L289.8,76.5L289.8,76.5L289.8,76.5z M230.2,87.7c-0.3-1.5-0.2-3.1,0.2-4.5l0-0.1c1-3.9,2.5-5.9,4.3-5.9
			c0.1,0,0.2,0,0.2,0c0.1,0.5,0.1,1.6-0.5,3.8c-0.5,1.9-1.4,3.6-2.7,5.1l0,0.1C231,86.9,230.5,87.4,230.2,87.7L230.2,87.7z"/>
	</g>
	<g>
		<path class="st0" d="M284.2,39.9c2.4,2.1,3.6,2.1,4.1,2.1c1.6,0,2.7-1.1,3.1-1.6c4.5-4.6,8.5-9,12-12.9c0.5-0.6,1-1.2,1.4-1.9
			c0.2-0.4,0.3-0.9,0.3-1.4c0-1.8-1.3-3.6-3.8-3.6c-0.2,0-0.4,0-0.6,0.1c-1,0.2-2,0.7-2.7,1.5c-2.1,1.9-4.3,3.8-6.6,5.4
			c0,0-0.1,0.1-0.1,0.1c-2.1,1.7-4.3,3.3-6.7,4.6c-2.5,1.2-3,2.7-3,3.8C281.6,37.7,282.9,38.8,284.2,39.9z M301.3,23.6
			c0.3,0,0.5,0,0.6,0.1C301.7,23.6,301.6,23.6,301.3,23.6c-0.2,0-0.4,0.1-0.6,0.2C300.9,23.7,301.1,23.6,301.3,23.6z M285.9,34.9
			c0.6-0.4,1.3-0.7,1.9-1.1C287.2,34.2,286.6,34.5,285.9,34.9c-0.2,0.1-0.4,0.2-0.6,0.3C285.5,35.1,285.7,35,285.9,34.9z"/>
		<path class="st0" d="M301.3,20.6c2.5,0,3.8,1.8,3.8,3.6c0,0.5-0.1,1-0.3,1.4c-0.4,0.7-0.8,1.3-1.4,1.9c-3.5,4-7.6,8.3-12,12.9
			c-0.4,0.5-1.5,1.6-3.1,1.6c-0.5,0-1.7,0-4.1-2.1c-1.3-1.1-2.5-2.2-2.5-3.9c0-1.1,0.5-2.6,3-3.8c2.4-1.3,4.6-2.8,6.7-4.6
			c0,0,0.1-0.1,0.1-0.1c2.3-1.7,4.5-3.5,6.6-5.4c0.7-0.8,1.7-1.3,2.7-1.5C300.9,20.6,301.1,20.6,301.3,20.6 M300.7,23.8
			c0.2-0.1,0.4-0.2,0.6-0.2c0.3,0,0.4,0,0.6,0.1c0,0,0,0,0,0c0,0,0,0,0,0c-0.1-0.1-0.3-0.1-0.6-0.1
			C301.1,23.6,300.9,23.7,300.7,23.8 M285.4,35.2c0.2-0.1,0.4-0.2,0.6-0.3c0.6-0.4,1.3-0.7,1.9-1.1c-0.6,0.4-1.3,0.8-1.9,1.1
			C285.7,35,285.5,35.1,285.4,35.2 M301.3,19.6c-0.3,0-0.5,0-0.8,0.1c-1.2,0.2-2.3,0.8-3.2,1.7c-2.1,1.9-4.2,3.7-6.5,5.4
			c-0.1,0-0.1,0.1-0.2,0.1c-2,1.7-4.2,3.2-6.5,4.5c-3.1,1.5-3.5,3.6-3.5,4.7c0,2.2,1.6,3.6,2.9,4.7c2.7,2.3,4.2,2.3,4.7,2.3
			c1.4,0,2.7-0.6,3.8-1.9c4.4-4.6,8.5-8.9,12-13c0.6-0.6,1.1-1.3,1.5-2.1c0.3-0.6,0.5-1.2,0.5-1.9C306.1,21.9,304.4,19.6,301.3,19.6
			L301.3,19.6z"/>
	</g>
	<g>
		<path class="st0" d="M382.7,35.3V25c1.1-0.5,1.8-1.5,1.8-2.8v-3.4c0-1.7-1.3-3-3-3h-10.8c-0.5-1-1.5-1.8-2.7-1.8h-4.1
			c-1.2,0-2.3,0.7-2.7,1.8h-11c-0.9,0-1.7,0.4-2.2,1c-0.4-1.1-1.5-1.9-2.8-1.9h-16.7c-1.7,0-3,1.3-3,3v1h-0.8c0-0.3,0.1-0.5,0.1-0.8
			c0.1-0.8-0.1-1.6-0.5-2.3c-0.5-0.7-1.2-1.1-2-1.2l-4-0.5c-0.1,0-0.3,0-0.4,0c-0.7,0-1.3,0.2-1.8,0.6c-0.6,0.5-1,1.2-1.1,2
			c-0.1,0.7-0.2,1.5-0.3,2.2h-1.2c-1.7,0-3,1.3-3,3v3.3c0,1.4,1,2.6,2.4,2.9c-0.6,2.5-1.3,5-2.1,7.4c-0.3,0.8-0.2,1.7,0.3,2.5
			c0.4,0.7,1.2,1.3,2,1.4l0.8,0.1c-0.4,0.3-0.7,0.6-1.1,0.8c-0.7,0.5-1.2,1.2-1.3,2.1s0.1,1.7,0.6,2.4l2.2,2.7
			c0.6,0.7,1.5,1.1,2.3,1.1c0.5,0,1.1-0.1,1.6-0.5c1.9-1.2,3.6-2.6,5.2-4.3c0.3,0.3,0.5,0.5,0.8,0.8c0.6,0.6,1.4,0.9,2.1,0.9
			c0.4,0,0.8-0.1,1.2-0.2l0.1,0.3c0.2,1.2,1.2,2.2,2.4,2.4c1.2,0.2,2.4,0.3,3.6,0.3l0,0c0.3,0,0.5,0,0.8,0c1.8,0,3.5-0.4,5.1-1.2
			c0,0,0.1,0,0.1,0c1.3-0.7,2.8-2.2,2.8-5.7V36h4c1.7,0,3-1.3,3-3v-3.4c0-1.7-1.3-3-3-3h-1.4c1-1,1.9-2.2,2.7-3.3
			c0.3,0.8,1,1.5,1.8,1.8v10.2c-1.3,0.3-2.3,1.5-2.3,2.9v3.5c0,1.7,1.3,3,3,3h11v0.8c0,1.7,1.3,3,3,3h4.1c1.7,0,3-1.3,3-3v-0.8h10.9
			c1.7,0,3-1.3,3-3v-3.5C384.8,36.8,383.9,35.7,382.7,35.3z M319.1,38.4c-0.3,0.4-0.7,0.9-1.1,1.3C318.4,39.2,318.8,38.8,319.1,38.4
			c0.2-0.2,0.3-0.4,0.5-0.6C319.4,38,319.3,38.2,319.1,38.4z M321.6,34.1c-0.4-0.3-0.9-0.6-1.4-0.9
			C320.7,33.4,321.2,33.8,321.6,34.1L321.6,34.1L321.6,34.1z M330.4,24.4h1.7c0,0.1,0,0.2,0,0.4v1.8h-1.9
			C330.3,25.8,330.3,25.1,330.4,24.4z M327.4,29.6L327.4,29.6l7.7,0v0H327.4z M332,38.8c-0.1,0-0.2,0-0.2,0
			c-0.2-0.5-0.5-0.9-0.8-1.2c-0.6-0.5-1.2-1-1.8-1.5h2.9V38.8z M334.2,45.4c-0.2,0-0.5,0-0.7,0c0,0-0.1,0-0.1,0c-0.3,0-0.6,0-1,0
			c0.4,0,0.7,0,1.1,0c0.3,0,0.6,0,1,0C334.3,45.4,334.3,45.4,334.2,45.4z M334.6,41.7c0.2-0.2,0.4-0.5,0.4-0.8
			C335,41.2,334.9,41.5,334.6,41.7z M338.6,23.2c0.6-0.6,1.1-1.2,1.7-1.8h0C339.7,22,339.1,22.6,338.6,23.2z M363.9,18.8h-13.7v0
			L363.9,18.8L363.9,18.8z M381.5,18.8h-13.6v0L381.5,18.8L381.5,18.8z"/>
		<path class="st0" d="M367.9,14.1c1.2,0,2.3,0.7,2.7,1.8h10.8c1.7,0,3,1.3,3,3v3.4c0,1.2-0.7,2.3-1.8,2.8v10.3
			c1.2,0.4,2.1,1.5,2.1,2.9v3.5c0,1.7-1.3,3-3,3h-10.9v0.8c0,1.7-1.3,3-3,3h-4.1c-1.7,0-3-1.3-3-3v-0.8h-11c-1.7,0-3-1.3-3-3v-3.5
			c0-1.4,1-2.6,2.3-2.9V25.1c-0.8-0.3-1.5-1-1.8-1.8c-0.8,1.2-1.7,2.3-2.7,3.3h1.4c1.7,0,3,1.3,3,3V33c0,1.7-1.3,3-3,3h-4v5.4
			c0,3.5-1.5,5-2.8,5.7c0,0-0.1,0-0.1,0c-1.6,0.8-3.3,1.2-5.1,1.2c-0.3,0-0.5,0-0.8,0l0,0c-1.2,0-2.4-0.1-3.6-0.3
			c-1.2-0.2-2.2-1.2-2.4-2.4l-0.1-0.3c-0.4,0.2-0.8,0.2-1.2,0.2c-0.8,0-1.5-0.3-2.1-0.9c-0.3-0.3-0.5-0.5-0.8-0.8
			c-1.5,1.6-3.3,3.1-5.2,4.3c-0.5,0.3-1,0.5-1.6,0.5c-0.9,0-1.7-0.4-2.3-1.1l-2.2-2.7c-0.5-0.7-0.8-1.5-0.6-2.4s0.6-1.6,1.3-2.1
			c0.4-0.3,0.8-0.5,1.1-0.8l-0.8-0.1c-0.9-0.2-1.6-0.7-2-1.4c-0.4-0.7-0.5-1.6-0.3-2.5c0.8-2.4,1.5-4.9,2.1-7.4
			c-1.4-0.3-2.4-1.5-2.4-2.9v-3.3c0-1.7,1.3-3,3-3h1.2c0.1-0.7,0.2-1.5,0.3-2.2c0.1-0.8,0.5-1.5,1.1-2c0.5-0.4,1.2-0.6,1.8-0.6
			c0.1,0,0.3,0,0.4,0l4,0.5c0.8,0.1,1.5,0.5,2,1.2c0.5,0.7,0.7,1.5,0.5,2.3c0,0.3-0.1,0.5-0.1,0.8h0.8v-1c0-1.7,1.3-3,3-3h16.7
			c1.3,0,2.3,0.8,2.8,1.9c0.5-0.6,1.3-1,2.2-1h11c0.5-1,1.5-1.8,2.7-1.8H367.9 M367.9,18.8h13.6v0L367.9,18.8L367.9,18.8
			 M350.2,18.8h13.7v0L350.2,18.8L350.2,18.8 M338.7,23.1C338.7,23.1,338.7,23.1,338.7,23.1C338.7,23.1,338.7,23.1,338.7,23.1
			c-0.1,0.1-0.1,0.1-0.1,0.1c0,0,0,0,0,0c0,0,0,0,0,0C338.6,23.2,338.6,23.1,338.7,23.1C338.7,23.1,338.7,23.1,338.7,23.1
			C338.7,23.1,338.7,23.1,338.7,23.1c0.5-0.5,1.1-1.1,1.5-1.7h0C339.7,22,339.2,22.5,338.7,23.1 M330.2,26.6h1.9v-1.8
			c0-0.1,0-0.2,0-0.4h-1.7C330.3,25.1,330.3,25.8,330.2,26.6 M327.4,29.6h7.7v0L327.4,29.6L327.4,29.6 M321.6,34.1L321.6,34.1
			L321.6,34.1c-0.4-0.3-0.9-0.6-1.4-0.9C320.7,33.4,321.2,33.8,321.6,34.1 M332,38.8V36h-2.9c0.6,0.5,1.2,1,1.8,1.5
			c0.4,0.3,0.7,0.8,0.8,1.2C331.9,38.8,331.9,38.8,332,38.8 M318,39.7c0.4-0.4,0.7-0.8,1.1-1.3c0.2-0.2,0.3-0.4,0.5-0.6
			c-0.2,0.2-0.3,0.4-0.5,0.6C318.8,38.8,318.4,39.2,318,39.7 M334.6,41.7c0.2-0.2,0.4-0.5,0.4-0.8C335,41.2,334.9,41.5,334.6,41.7
			 M333.4,45.4c0,0,0.1,0,0.1,0c0.2,0,0.5,0,0.7,0c0.1,0,0.2,0,0.3,0c-0.1,0-0.3,0-0.4,0c-0.2,0-0.4,0-0.6,0
			C333.5,45.4,333.4,45.4,333.4,45.4c-0.3,0-0.6,0-1,0C332.7,45.4,333,45.4,333.4,45.4 M367.9,13.1h-4.1c-1.3,0-2.6,0.7-3.3,1.8
			h-10.4c-0.7,0-1.4,0.2-1.9,0.5c-0.7-0.9-1.8-1.4-3-1.4h-16.7c-1.3,0-2.4,0.6-3.2,1.6c-0.1-0.1-0.1-0.2-0.2-0.3
			c-0.6-0.9-1.6-1.5-2.7-1.6l-4-0.5c-0.2,0-0.3,0-0.5,0c-0.9,0-1.7,0.3-2.4,0.8c-0.8,0.6-1.4,1.6-1.5,2.7c-0.1,0.5-0.1,0.9-0.2,1.4
			h-0.3c-2.2,0-4,1.8-4,4v3.3c0,1.5,0.9,2.9,2.2,3.6c-0.6,2.2-1.2,4.3-1.9,6.5c-0.4,1.1-0.2,2.3,0.4,3.3c0.4,0.6,0.9,1.1,1.5,1.4
			c-0.7,0.6-1.1,1.4-1.2,2.3c-0.2,1.1,0.1,2.3,0.9,3.1l2.2,2.7c0.8,0.9,1.9,1.5,3.1,1.5c0.7,0,1.5-0.2,2.1-0.6
			c1.7-1,3.3-2.3,4.7-3.7c0,0,0,0,0,0c0.8,0.8,1.8,1.2,2.8,1.2c0.1,0,0.3,0,0.4,0c0.5,1.3,1.6,2.3,3,2.5c1.2,0.2,2.5,0.3,3.7,0.3
			c0.3,0,0.6,0,0.8,0c1.9,0,3.8-0.5,5.5-1.3l0.1-0.1c1.5-0.8,3.3-2.6,3.3-6.6V37h3c-0.1,0.4-0.2,0.8-0.2,1.2v3.5c0,2.2,1.8,4,4,4h10
			c0.1,2.1,1.8,3.8,4,3.8h4.1c2.1,0,3.9-1.7,4-3.8h9.9c2.2,0,4-1.8,4-4v-3.5c0-1.5-0.8-2.9-2.1-3.5v-9.1c1.1-0.7,1.8-2,1.8-3.3v-3.4
			c0-2.2-1.8-4-4-4h-10.3C370.5,13.7,369.3,13.1,367.9,13.1L367.9,13.1z M346.8,25.6c0.2-0.2,0.3-0.4,0.5-0.6
			c0.3,0.3,0.5,0.5,0.9,0.7v0.4C347.7,25.9,347.3,25.7,346.8,25.6L346.8,25.6z"/>
	</g>
</g>
<title>資產 1</title>
<title>資產 1</title>
<g>
	<path class="st1" d="M202.1,5.3c0,0-31,10.4-71.9,50.6c0,0-13.5-16.5-20.9-20.8l-23,12.5c0,0,22.6,11.7,42.9,51.5
		C129.2,99.2,168.6,29,202.1,5.3z"/>
	<path class="st2" d="M114.3,74.8c5.6,7.7,10.6,15.9,14.9,24.4c0,0,25.8-45.9,53.4-76C156.5,41.4,129.9,62.3,114.3,74.8z"/>
	<path class="st3" d="M71.4,36.1c-0.1,0.1-0.2,0.2-0.3,0.3c-0.6,0.6-0.8,1.2-1.6,1.7c-0.8,0.4-1.6,0.6-2.4,0.8
		c-4.4,0.8-8.9,0.8-13.3,1.3c-6,0.7-11.9,1.8-17.8,3.3c-2.6,0.7-5,1.7-7.6,2.6c-2.1,0.8-18.1,7.5-23.8,38.7l-0.1,0.4v0.4
		C4.9,89,7.5,95.8,15.5,96.4H31c1.9,7.2,6.7,14.5,17.3,16.2c1.6,0.3,3.2,0.4,4.7,0.4c8,0,17-3.6,23-16.6h34.7v-6H78.4
		c0.4-1.2,0.8-2.5,1.1-3.8c0.3-1.6-0.8-3.2-2.5-3.5c-1.4-0.2-2.8,0.6-3.3,1.9c-4.3,16.3-12.5,23.5-24.5,21.6
		C34.3,104.3,36,86.9,36.1,86.2c0.4-1.6-0.7-3.2-2.3-3.6s-3.2,0.7-3.6,2.3c0,0.2-0.1,0.4-0.1,0.6c-0.2,1.6-0.2,3.3-0.1,4.9H15.8
		c-2.7-0.2-4.9-2.3-5.2-5c0.7-3.9,1.7-7.8,3.1-11.6c0.6-1.8,1-3.2,2.6-4.3c2-1.6,4.5-2.6,7-2.7c1.4,0,2.7,0,4-0.1l9.8-0.6l24.8-1.6
		l7.7-0.5l-0.2-2.6l-17.1,1.1c-8.3,0.5-16.5,1-24.8,1.6c-1.6,0.1-3.2,0.1-4.7,0.1c-2,0.1-4,0.7-5.7,1.7
		c6.1-11.6,13.3-14.3,13.4-14.3l0.3-0.1c9.9-4.5,21.5-5.3,32.2-6.3c2.3-0.1,4.6-0.5,6.9-1c1.4-0.4,2.7-1,3.9-1.8
		c1.3-0.9,2-2.2,3.1-3.1s2.4-1.9,3.6-2.8c2.6-2,5.2-3.8,8-5.4c5.4-3.2,11.1-5.9,17-8.1c11.7-4,23.8-6.4,36.2-7.1
		c10.5-0.7,21.1-0.7,31.6,0l0.3-6c0-0.2-15.2-0.5-16.6-0.5c-5.9,0-11.8,0.2-17.6,0.6c-12.2,0.9-24.3,3.3-35.8,7.4
		c-6.3,2.3-12.4,5.2-18.1,8.8c-2.9,1.8-5.8,3.7-8.5,5.8c-1.3,1-2.7,2-4,3.1C72.4,35.3,71.9,35.7,71.4,36.1z"/>
	<path class="st2" d="M216.2,53.1c-1.7,5.2-4.5,13.6-8.2,25.4c-1.7,5.6-4,13.3-7.1,23.3h-16.1l2.5-10.6c-0.4,0.1-1.3,0.4-2.6,0.9
		c-1.1,0.4-2.2,0.9-3.3,1.4l-0.6-3.9c-0.1-0.8-0.4-2-0.7-3.6l-4.5,15.8h-17.8l5.3-23.3c1.4-6.1,3.2-14.5,5.4-25.3h22.2l-9.5,29.9
		c1.5,0.1,2.9,0.2,4.4,0.1c0.9,0,2.1-0.1,3.7-0.3l6.4-29.8H216.2z"/>
	<path class="st2" d="M255,76.4c-1.8,7.2-5.6,13.7-10.8,18.9c-5.5,5.3-11.3,8-17.6,8c-6.5,0-11-2.7-13.6-8.1
		c-2.4-5.1-2.6-11.4-0.6-18.8c2.1-7.9,5.8-14.2,11.2-18.7c4.7-4.1,10.7-6.4,16.9-6.4c6.2,0,10.6,2.1,13.3,6.4
		C256.8,62.2,257.1,68.5,255,76.4z M238.3,82c1.6-5.9,0.4-8.8-3.6-8.8c-3.9,0-6.6,3-8.2,8.9c-0.6,2.1-0.7,4.4-0.3,6.6
		c0.5,2.3,1.6,3.4,3.3,3.4s3.4-1.2,5.2-3.5C236.4,86.6,237.6,84.4,238.3,82z"/>
	<path class="st2" d="M294.1,73c-1.4-0.4-2.9-0.6-4.3-0.5c-3.2-0.1-6.3,0.9-8.9,2.7c-2.9,2-5,5.1-5.9,8.6c-0.8,2.9-0.5,5.3,0.9,7.2
		c1.4,1.9,3.6,2.8,6.7,2.8c2.2,0,4.4-0.6,6.4-1.6c-0.5,0.9-1.2,2.4-2.4,4.8c-0.7,1.5-1.4,3.1-2.1,4.8c-3.1,1-6.2,1.4-9.5,1.4
		c-6.7,0-11.8-2.2-15.4-6.7c-3.8-4.9-4.7-11.3-2.6-19.1c1.7-7,5.7-13.1,11.4-17.6c6.1-4.8,13.7-7.3,21.5-7.2
		c2.9-0.1,5.7,0.1,8.5,0.7L294.1,73z"/>
	<path class="st2" d="M350,53.1c-1.7,5.2-4.5,13.6-8.2,25.4c-1.7,5.6-4,13.3-7.2,23.3h-16.1l2.5-10.6c-0.4,0.1-1.3,0.4-2.6,0.9
		c-1.1,0.4-2.2,0.9-3.3,1.4l-0.6-3.9c-0.1-0.8-0.4-2-0.7-3.6l-4.5,15.8h-17.8l5.3-23.3c1.4-6.1,3.2-14.5,5.4-25.3h22.2l-9.5,29.9
		c1.5,0.1,2.9,0.2,4.4,0.1c0.9,0,2.2-0.1,3.7-0.3l6.4-29.8L350,53.1z"/>
	<path class="st2" d="M378.3,101.7h-17.3v-4.2c-0.5,0.2-1.9,0.8-4.1,1.9c-1.7,1-3.4,2-5,3.2l-0.8-3.8c-0.2-0.8-0.4-1.8-0.7-3.2
		l-3.3,6.1h-9.2c2.8-5.2,7.1-13.8,13.2-25.8c3.9-8,7.4-15.6,10.4-22.8h19c-0.3,3.3-0.7,11-1.4,23.1
		C378.8,82.6,378.5,91.1,378.3,101.7z M361.1,91.3c-0.1-1.1-0.2-2.9-0.4-5.4c-0.2-1.4-0.5-3.3-1-5.8c-0.8,1.2-2.1,3.2-3.9,6
		c-1,1.6-2.3,3.8-3.8,6.6c0.6,0,2.1-0.1,4.4-0.4C358,92.1,359.5,91.8,361.1,91.3z"/>
	<path class="st3" d="M210.2,16.9l3.9,1c-0.6,2.1-1.4,4.1-2.4,6v21.6h-3.9v-15c-0.4,0.6-0.8,1.1-1.3,1.7l-2.1-3.5
		C207.1,25.1,209,21.2,210.2,16.9z M218.8,31.3h3.4v1.4c-0.1,0.4,0.2,0.7,0.6,0.8c0.5,0.1,1.1,0.2,1.7,0.2c0.5,0,1,0,1.5-0.1
		c0.2,0,0.5-0.1,0.7-0.2c0.2-0.2,0.4-0.7,0.5-1.5l3,1.2c-0.1,0.7-0.3,1.4-0.7,2c-0.4,0.4-0.9,0.7-1.4,0.7c-1.2,0.1-2.4,0.2-3.6,0.1
		c-0.5,0-1,0-1.4,0c-0.2,0.3-0.4,0.5-0.6,0.8h10.9v1.9c-1.2,1.2-2.6,2.2-4.1,3l0.7,0.1c2.4,0.4,4.9,0.7,7.4,0.8l-0.9,3
		c-2.8,0-5.5-0.3-8.2-1c-1.2-0.3-2.4-0.6-3.6-1.1c-3.5,1.1-7,1.8-10.6,2.2l-1.7-2.8c2.9-0.2,5.7-0.6,8.6-1.2
		c-0.9-0.5-1.7-1.1-2.4-1.7c-1,0.6-2.1,1.2-3.1,1.6l-1.7-2.7c1.4-0.5,2.7-1.2,4-2c0.7-0.4,1.4-0.9,2-1.5c-0.7-0.4-1.1-1.2-1-1.9
		L218.8,31.3z M214.4,17.3h21.8v2.6h-9.7l-0.3,0.8h8.2v8.1h3v4.5h-2.9c0.2,0.3,0.4,0.7,0.6,1l-2.8,1.4c-0.6-1.1-1.3-2.1-2.2-2.9
		l2.5-1.5c0.4,0.3,0.7,0.6,1,1V31h-7.4c0.3,0.1,0.5,0.2,0.7,0.4l-1.8,2c-0.7-0.5-1.5-1-2.3-1.4l1.1-1h-7.4v1l1.8,0.4
		c-0.2,1.3-0.7,2.5-1.4,3.6l-2.8-1.2c0.3-0.5,0.6-1,0.9-1.5h-2.3v-4.5h3v-8.1h6.7l0.3-0.8h-8.2L214.4,17.3z M219.4,23.5h11.2v-0.6
		h-11.2L219.4,23.5z M219.4,26.1h11.2v-0.6h-11.2L219.4,26.1z M219.4,28.8h11.2v-0.7h-11.2L219.4,28.8z M222.8,39.2
		c0.6,0.3,1.1,0.6,1.7,0.9c0.3,0.1,0.6,0.3,0.9,0.4c1-0.3,2-0.8,2.9-1.3H222.8z"/>
	<path class="st3" d="M255.3,17.1l1.8,2.9c-3.1,0.3-6.8,0.5-10.9,0.7v0.7h10.5v3h-3.1v2.5h-4v-2.5h-3.5c-0.1,0.8-0.3,1.6-0.6,2.4
		c-0.1,0.2-0.2,0.4-0.3,0.5H258l-2.3-1.7c0.6-0.4,1.1-0.9,1.5-1.5c0.5-1.3,0.7-2.6,0.6-4v-2.2c5.2-0.2,9.5-0.4,12.8-0.8l1.8,2.9
		c-3.1,0.3-6.7,0.5-10.8,0.7v0.6h12v3h-3.4v2.6h-4v-2.6h-4.9c-0.1,0.6-0.3,1.1-0.6,1.7c-0.4,0.5-0.8,1-1.3,1.4h10.8v14.2h-6.7
		c1.3,0.2,2.7,0.4,4.2,0.6c1.9,0.2,3.7,0.5,5.4,0.6l-2.1,3.2c-1.9-0.3-3.7-0.6-5.5-1c-2.1-0.5-4-1-5.8-1.5l2.1-2h-9.7l2.2,2.2
		c-1.6,0.6-3.2,1-4.8,1.3c-1.9,0.4-3.8,0.8-5.8,1l-2.3-3.1c2.2-0.2,4.2-0.5,5.9-0.8c1.1-0.2,2.1-0.4,2.9-0.6h-5.7V28.1
		c-0.3,0.3-0.6,0.5-0.9,0.7l-3.1-2.2c0.5-0.5,1-1,1.3-1.7c0.4-1.5,0.6-3,0.5-4.5v-2.6C247.7,17.7,251.9,17.4,255.3,17.1z
		 M248.5,31.1h17.7v-0.9h-17.7L248.5,31.1z M248.5,34.8h17.7v-0.9h-17.7L248.5,34.8z M248.5,38.4h17.7v-0.8h-17.7L248.5,38.4z"/>
	<path class="st3" d="M302,24.1c-0.2,0.5-0.5,0.9-0.9,1.3c-3.5,4-7.5,8.3-12,12.9c-0.4,0.4-0.6,0.6-0.9,0.6s-1.1-0.5-2.1-1.4
		s-1.5-1.4-1.5-1.6s0.4-0.7,1.3-1.1c2.6-1.4,5-3.1,7.3-4.9c2.4-1.8,4.7-3.7,6.9-5.7c0.3-0.3,0.7-0.6,1.2-0.6
		C301.8,23.6,302,23.8,302,24.1z"/>
	<path class="st3" d="M317.9,17.1l4,0.5c-0.3,1.5-0.5,2.9-0.8,4.3h6.5c-0.2,3.7-0.7,7.3-1.6,10.9c-0.4,1.3-0.8,2.5-1.2,3.5
		c1.5,1.1,2.9,2.3,4.2,3.5l-2.8,2.8c-1-1.1-2.1-2.1-3.2-3l-0.7,0.9c-1.6,2.1-3.6,3.8-5.8,5.2l-2.2-2.7c1.9-1.2,3.5-2.7,4.8-4.5
		c0.3-0.4,0.6-0.8,0.9-1.2c-0.7-0.5-1.5-1-2.2-1.5c-0.1,0.5-0.3,1-0.5,1.5l-3.9-0.7c1.2-3.7,2.2-7.5,3-11.3h-3.1v-3.3h3.8
		C317.4,20.3,317.7,18.7,317.9,17.1z M321.6,34.1c0.2-0.5,0.4-1.1,0.6-1.6c0.7-2.3,1.2-4.8,1.4-7.2h-3.1c-0.5,2.6-1.1,4.9-1.6,7
		C319.8,32.8,320.7,33.4,321.6,34.1L321.6,34.1z M328.5,17.9h16.7v3.2c-1.7,2.5-3.7,4.6-6.1,6.5v2h7V33h-7v8.4
		c0,1.6-0.4,2.6-1.2,3.1c-1.4,0.7-2.9,1-4.4,0.9c-1.1,0-2.1-0.1-3.1-0.3l-0.7-3.8c1.2,0.4,2.5,0.6,3.8,0.6c0.4,0,0.8-0.1,1.2-0.2
		c0.3-0.3,0.4-0.7,0.4-1.2V33h-7.7v-3.4h7.7v-4.8l1.7,0.1c1.3-1,2.5-2.2,3.5-3.5h-11.7V17.9z"/>
	<path class="st3" d="M350.2,18.8h13.7v-1.8h4.1v1.8h13.6v3.4h-13.6v1.2h11.8v13.5h-11.8v1.2h13.9v3.5h-13.9v3.8h-4.1v-3.8h-14v-3.5
		h14v-1.2h-11.7V23.5h11.7v-1.2h-13.7V18.8z M356.2,28.7h7.6V27h-7.6V28.7z M356.2,33.5h7.6v-1.6h-7.6V33.5z M367.9,27v1.7h7.7V27
		H367.9z M367.9,31.9v1.6h7.7v-1.6H367.9z"/>
	<g>
		<defs>
			<path id="SVGID_1_" d="M216.2,53.1c-1.7,5.2-4.5,13.6-8.2,25.4c-1.7,5.6-4,13.3-7.1,23.3h-16.1l2.5-10.6
				c-0.4,0.1-1.3,0.4-2.6,0.9c-1.1,0.4-2.2,0.9-3.3,1.4l-0.6-3.9c-0.1-0.8-0.4-2-0.7-3.6l-4.5,15.8h-17.8l5.3-23.3
				c1.4-6.1,3.2-14.5,5.4-25.3h22.2l-9.5,29.9c1.5,0.1,2.9,0.2,4.4,0.1c0.9,0,2.1-0.1,3.7-0.3l6.4-29.8H216.2z"/>
		</defs>
		<clipPath id="SVGID_2_">
			<use xlink:href="#SVGID_1_"  style="overflow:visible;"/>
		</clipPath>
		<path class="st4" d="M140.8,92.7c0,0,164.4-22.5,258.1-15.4s-31,42.8-31,42.8l-227.1-9.2V92.7z"/>
	</g>
	<g>
		<defs>
			<path id="SVGID_3_" d="M255,76.4c-1.8,7.2-5.6,13.7-10.8,18.9c-5.5,5.3-11.3,8-17.6,8c-6.5,0-11-2.7-13.6-8.1
				c-2.4-5.1-2.6-11.4-0.6-18.8c2.1-7.9,5.8-14.2,11.2-18.7c4.7-4.1,10.7-6.4,16.9-6.4c6.2,0,10.6,2.1,13.3,6.4
				C256.8,62.2,257.1,68.5,255,76.4z M238.3,82c1.6-5.9,0.4-8.8-3.6-8.8c-3.9,0-6.6,3-8.2,8.9c-0.6,2.1-0.7,4.4-0.3,6.6
				c0.5,2.3,1.6,3.4,3.3,3.4s3.4-1.2,5.2-3.5C236.4,86.6,237.6,84.4,238.3,82z"/>
		</defs>
		<clipPath id="SVGID_4_">
			<use xlink:href="#SVGID_3_"  style="overflow:visible;"/>
		</clipPath>
		<path class="st5" d="M140.8,92.7c0,0,164.4-22.5,258.1-15.4s-31,42.8-31,42.8l-227.1-9.2V92.7z"/>
	</g>
	<g>
		<defs>
			<path id="SVGID_5_" d="M294.1,73c-1.4-0.4-2.9-0.6-4.3-0.5c-3.2-0.1-6.3,0.9-8.9,2.7c-2.9,2-5,5.1-5.9,8.6
				c-0.8,2.9-0.5,5.3,0.9,7.2c1.4,1.9,3.6,2.8,6.7,2.8c2.2,0,4.4-0.6,6.4-1.6c-0.5,0.9-1.2,2.4-2.4,4.8c-0.7,1.5-1.4,3.1-2.1,4.8
				c-3.1,1-6.2,1.4-9.5,1.4c-6.7,0-11.8-2.2-15.4-6.7c-3.8-4.9-4.7-11.3-2.6-19.1c1.7-7,5.7-13.1,11.4-17.6
				c6.1-4.8,13.7-7.3,21.5-7.2c2.9-0.1,5.7,0.1,8.5,0.7L294.1,73z"/>
		</defs>
		<clipPath id="SVGID_6_">
			<use xlink:href="#SVGID_5_"  style="overflow:visible;"/>
		</clipPath>
		<path class="st6" d="M140.8,92.7c0,0,164.4-22.5,258.1-15.4s-31,42.8-31,42.8l-227.1-9.2V92.7z"/>
	</g>
	<g>
		<defs>
			<path id="SVGID_7_" d="M350,53.1c-1.7,5.2-4.5,13.6-8.2,25.4c-1.7,5.6-4,13.3-7.2,23.3h-16.1l2.5-10.6c-0.4,0.1-1.3,0.4-2.6,0.9
				c-1.1,0.4-2.2,0.9-3.3,1.4l-0.6-3.9c-0.1-0.8-0.4-2-0.7-3.6l-4.5,15.8h-17.8l5.3-23.3c1.4-6.1,3.2-14.5,5.4-25.3h22.2l-9.5,29.9
				c1.5,0.1,2.9,0.2,4.4,0.1c0.9,0,2.2-0.1,3.7-0.3l6.4-29.8L350,53.1z"/>
		</defs>
		<clipPath id="SVGID_8_">
			<use xlink:href="#SVGID_7_"  style="overflow:visible;"/>
		</clipPath>
		<path class="st7" d="M140.8,92.7c0,0,164.4-22.5,258.1-15.4s-31,42.8-31,42.8l-227.1-9.2V92.7z"/>
	</g>
	<g>
		<defs>
			<path id="SVGID_9_" d="M378.3,101.7h-17.3v-4.2c-0.5,0.2-1.9,0.8-4.1,1.9c-1.7,1-3.4,2-5,3.2l-0.8-3.8c-0.2-0.8-0.4-1.8-0.7-3.2
				l-3.3,6.1h-9.2c2.8-5.2,7.1-13.8,13.2-25.8c3.9-8,7.4-15.6,10.4-22.8h19c-0.3,3.3-0.7,11-1.4,23.1
				C378.8,82.6,378.5,91.1,378.3,101.7z M361.1,91.3c-0.1-1.1-0.2-2.9-0.4-5.4c-0.2-1.4-0.5-3.3-1-5.8c-0.8,1.2-2.1,3.2-3.9,6
				c-1,1.6-2.3,3.8-3.8,6.6c0.6,0,2.1-0.1,4.4-0.4C358,92.1,359.5,91.8,361.1,91.3z"/>
		</defs>
		<clipPath id="SVGID_10_">
			<use xlink:href="#SVGID_9_"  style="overflow:visible;"/>
		</clipPath>
		<path class="st8" d="M140.8,92.7c0,0,164.4-22.5,258.1-15.4s-31,42.8-31,42.8l-227.1-9.2V92.7z"/>
	</g>
</g>
</svg>
