<?xml version="1.0" encoding="utf-8"?>
<!-- Generator: Adobe Illustrator 24.0.1, SVG Export Plug-In . SVG Version: 6.00 Build 0)  -->
<svg version="1.1" id="圖層_1" xmlns="http://www.w3.org/2000/svg" xmlns:xlink="http://www.w3.org/1999/xlink" x="0px" y="0px"
	 viewBox="0 0 136.1 136.1" style="enable-background:new 0 0 136.1 136.1;" xml:space="preserve">
<style type="text/css">
	.st0{fill:#FFFFFF;}
</style>
<g>
	<g>
		<path class="st0" d="M97.3-180.1c-14.7,0-24.5,8-29.3,13.4c-4.8-5.3-14.6-13.4-29.3-13.4c-20.1,0-33.5,18.7-33.5,39.6
			c0,15.7,7.9,46.2,60.8,74.5c1.2,0.7,2.7,0.7,4,0c52.9-28.4,60.8-58.9,60.8-74.5C130.8-161.9,117-180.1,97.3-180.1z"/>
	</g>
</g>
<path d="M-162.8,147.2c-1,0-2.1,0.1-3.1,0.4l-11.9,3.3l-12.3-30c-3.5-8.5-13.8-15.4-23-15.4h-115.4c-9.2,0-19.5,6.9-23,15.4
	l-12.3,30l-11.7-3.2c-1-0.3-2.1-0.4-3.1-0.4c-5.6,0-9.7,4.3-9.7,10.2v7c0,6.9,5.6,12.5,12.5,12.5h1.3l-2,4.8
	c-3.2,7.9-5.9,21.3-5.9,29.8v59.7c0,6.9,5.6,12.5,12.5,12.5h16.3c6.9,0,12.5-5.6,12.5-12.5v-14.9h140.5v14.9
	c0,6.9,5.6,12.5,12.5,12.5h16.3c6.9,0,12.5-5.6,12.5-12.5v-59.7c0-8.5-2.6-21.9-5.9-29.8l-2-4.8h1.5c6.9,0,12.5-5.6,12.5-12.5v-7
	C-153.1,151.5-157.2,147.2-162.8,147.2z"/>
<g>
	<g>
		<path d="M304.2-138.4h-56.8v-25c0-0.9-0.6-1.7-1.4-2.1s-1.8-0.2-2.5,0.5l-45.5,45.4c-0.4,0.4-0.7,1-0.7,1.6c0,0.6,0.2,1.2,0.7,1.6
			l45.5,45.4c0.4,0.4,1,0.7,1.6,0.7c0.3,0,0.6-0.1,0.9-0.2c0.8-0.4,1.4-1.2,1.4-2.1v-25h56.8c1.3,0,2.3-1,2.3-2.3v-36.3
			C306.4-137.4,305.4-138.4,304.2-138.4z"/>
	</g>
</g>
<g>
	<g>
		<path class="st0" d="M-315.4,160.7h49.1v-21.6c0-0.8,0.5-1.5,1.2-1.8s1.6-0.1,2.1,0.4l39.3,39.2c0.4,0.4,0.6,0.9,0.6,1.4
			c0,0.5-0.2,1-0.6,1.4L-263,219c-0.4,0.4-0.9,0.6-1.4,0.6c-0.3,0-0.5,0-0.7-0.1c-0.7-0.3-1.2-1-1.2-1.8V196h-49.1c-1.1,0-2-0.9-2-2
			v-31.4C-317.4,161.5-316.5,160.7-315.4,160.7z"/>
	</g>
</g>
</svg>
